<?xml version="1.0" standalone="no"?><!DOCTYPE svg PUBLIC "-//W3C//DTD SVG 1.1//EN" "http://www.w3.org/Graphics/SVG/1.1/DTD/svg11.dtd"><svg t="1537074729538" class="icon" style="" viewBox="0 0 1024 1024" version="1.1" xmlns="http://www.w3.org/2000/svg" p-id="14450" xmlns:xlink="http://www.w3.org/1999/xlink" width="200" height="200"><defs><style type="text/css"></style></defs><path d="M977.574931 563.727706l-422.392256 421.482908c-51.855583 51.719181-135.902094 51.719181-187.734944 0L38.900213 657.390575c-51.83285-51.719181-51.83285-135.606556 0-187.325737l422.41499-421.482908C493.551598 14.822376 499.735166 0 533.585654 0l429.0987 0c33.850488 0 61.290071 27.394116 61.290071 61.176403l0 428.143884C1023.974425 523.07984 1004.741709 536.583661 977.574931 563.727706zM85.822582 610.55914l328.524785 327.82004c25.939158 25.848224 67.951047 25.848224 93.867472 0l46.422228-46.354026L133.245092 469.564696l-47.422511 47.308842C59.906157 542.767229 59.906157 584.688183 85.822582 610.55914zM962.684353 91.753237c0-16.891144-13.731158-30.576834-30.645036-30.576834L564.253423 61.176403c-16.936611 0-40.966138 19.209982-56.015851 34.236961L180.190195 422.733262l421.892115 421.98305 328.547518-327.82004c16.527404-16.481937 32.054525-41.261676 32.054525-58.15282L962.684353 91.753237zM625.566228 399.817686c-51.83285-51.696447-51.83285-135.583822 0-187.325737 51.83285-51.719181 135.902094-51.719181 187.734944 0 51.83285 51.719181 51.83285 135.606556 0 187.325737C761.445588 451.536867 677.376344 451.536867 625.566228 399.817686zM766.356069 259.323384c-25.939158-25.870957-67.951047-25.870957-93.867472 0-25.939158 25.870957-25.939158 67.791911 0 93.685602 25.916425 25.848224 67.928313 25.848224 93.867472 0C792.272494 327.138028 792.272494 285.194341 766.356069 259.323384z" p-id="14451" fill="#34ca6e"></path></svg>