<?xml version="1.0" standalone="no"?><!DOCTYPE svg PUBLIC "-//W3C//DTD SVG 1.1//EN" "http://www.w3.org/Graphics/SVG/1.1/DTD/svg11.dtd"><svg t="1552318211792" class="icon" style="" viewBox="0 0 1024 1024" version="1.1" xmlns="http://www.w3.org/2000/svg" p-id="3890" xmlns:xlink="http://www.w3.org/1999/xlink" width="200" height="200"><defs><style type="text/css"></style></defs><path d="M154.31168 715.41248c-65.529856-110.850048-38.70208-276.215808 30.267392-378.749952 9.975808-14.973952 30.246912-18.911232 44.819456-9.136128 7.156736 4.977664 11.73504 12.054528 13.513728 19.750912l0.520192 0c1.139712 6.037504 2.479104 11.435008 4.158464 16.632832 6.956032-24.128512 16.632832-46.578688 29.106176-68.4288 36.924416-65.091584 96.91648-119.387136 160.987136-144.136192 16.852992-6.436864 35.98336 2.499584 42.001408 19.151872 3.039232 8.096768 2.518016 17.052672-0.39936 24.109056-6.757376 15.193088-11.9552 28.926976-16.633856 43.480064 47.7184-43.480064 108.151808-81.123328 170.023936-104.613888C760.998912 85.215232 907.533312 99.76832 962.428928 245.362688c6.457344 16.852992-2.280448 35.764224-19.131392 42.020864l-3.018752 1.03936c-109.07136 29.1072-149.532672 99.815424-187.79648 167.005184-53.77536 93.7984-103.913472 181.358592-282.033152 178.460672 12.054528 5.397504 27.747328 11.435008 48.037888 17.870848 17.051648 5.197824 26.528768 23.310336 21.629952 40.361984-2.69824 9.136128-9.15456 15.593472-16.53248 19.131392-81.743872 46.798848-225.65888 79.444992-318.216192 42.841088-12.694528 18.711552-32.545792 59.273216-19.151872 121.884672l0.44032 0.420864 89.519104 0c10.615808 0 19.350528 8.935424 19.350528 19.550208 0 10.596352-8.735744 19.132416-19.350528 19.132416l-96.715776 0-18.591744 0-2.399232 0c-16.55296 2.07872-31.82592-8.955904-35.78368-25.588736C104.894464 804.851712 133.4016 745.977856 154.31168 715.41248L154.31168 715.41248zM392.444928 915.08224 392.444928 915.08224c-10.594304 0-19.550208-8.536064-19.550208-19.132416 0-10.614784 8.955904-19.550208 19.550208-19.550208l338.287616 0c11.136 0 19.871744 8.935424 19.871744 19.550208 0 10.596352-8.735744 19.132416-19.871744 19.132416L392.444928 915.08224 392.444928 915.08224zM209.327104 681.086976 209.327104 681.086976c41.901056 45.759488 166.065152 16.013312 216.822784 0.41984-27.667456-17.472512-42.860544-35.14368-50.757632-50.957312-11.534336-23.090176-17.99168-72.367104 27.667456-66.35008 198.091776 25.389056 243.750912-54.695936 292.629504-140.796928 40.660992-71.128064 83.50208-145.594368 190.833664-185.736192C783.868928 68.363264 487.083008 259.096576 435.825664 375.344128c-4.59776 12.894208-16.55296 22.670336-31.106048 22.670336-17.792 0-32.545792-14.972928-32.545792-33.065984 0 0 2.2784-47.198208 17.272832-108.150784-21.850112 20.390912-41.302016 44.300288-56.495104 70.72768-27.027456 47.418368-39.182336 100.854784-25.867264 149.532672l0 0c3.71712 13.734912-1.160192 27.86816-13.314048 35.765248-14.772224 9.775104-34.643968 6.03648-44.819456-9.137152-14.572544-21.849088-30.485504-43.060224-42.860544-66.76992C178.540544 511.383552 168.225792 609.958912 209.327104 681.086976L209.327104 681.086976z" fill="#d75047" p-id="3891"></path></svg>