<?xml version="1.0" standalone="no"?><!DOCTYPE svg PUBLIC "-//W3C//DTD SVG 1.1//EN" "http://www.w3.org/Graphics/SVG/1.1/DTD/svg11.dtd"><svg t="1537069166345" class="icon" style="" viewBox="0 0 1024 1024" version="1.1" xmlns="http://www.w3.org/2000/svg" p-id="24132" xmlns:xlink="http://www.w3.org/1999/xlink" width="200" height="200"><defs><style type="text/css"></style></defs><path d="M751.39798793 862.07890844l67.96550692-33.38080416c8.13543091 30.31633713 12.51324179 62.20139008 12.51324181 95.10793176h-0.03648149v1.31334301l-0.03648229 5.54522637h-73.65666084c0.03648147-1.8240878 0.10944525-3.68465708 0.10944526-5.54522637a292.58366501 292.58366501 0 0 0-6.85856937-63.04047061z m-128.30632773-181.86154211a276.82354715 276.82354715 0 0 0-146.65665014-41.84457165c-155.59467929 0-281.74858429 128.37929151-281.7485843 286.74658437 0 1.8240878 0 3.72113855 0.07296378 5.54522636H121.10272872l-0.07296296-5.54522636 0.03648149-1.31334301H120.99328346c0-168.18088486 113.56769944-309.51119834 266.60865647-349.86001795a250.55668433 250.55668433 0 0 1-157.30932184-233.30081524C230.29261809 202.48880166 340.68640441 90.125 476.43501006 90.125c135.71212417 0 246.14239197 112.36380167 246.14239196 250.52020285 0 106.19838528-65.41178467 196.96498846-157.34580331 233.30081524a351.50169671 351.50169671 0 0 1 94.67015076 40.60419159l-36.81008927 65.66715665zM305.04373143 340.64520285c0 96.12942132 76.90353689 174.38278271 171.39127863 174.38278272 94.48774173 0 171.35479715-78.25336139 171.35479715-174.38278272 0-96.20238428-76.90353689-174.41926418-171.35479715-174.41926419-94.48774173 0-171.39127863 78.21687991-171.39127863 174.38278271z m596.91445423 145.45275238c-2.55372308 17.58420566-5.4722634 36.26286301-9.15692047 56.4372724-3.68465708 20.17441022-7.73413137 40.34881961-12.14842373 60.92452853a1456.35160831 1456.35160831 0 0 1-13.20639479 56.43727323l-60.63267508 33.63617696c7.33283267-2.26186881 14.70214682-4.12243808 21.67016227-6.38430688 5.8735621-1.8240878 12.11194226-3.72113855 18.38680389-5.58170782 6.20189785-1.86056927 11.74712503-3.35632132 15.79659934-5.25337289l-6.27486164 24.29684829c-1.8240878 6.74912411-3.28335755 11.96601553-5.10744617 15.32233603-2.95502179 8.24487616-6.63967886 16.05197131-10.68915316 22.80109626-4.01299283 7.11394217-8.06246796 13.09694952-11.38230781 18.31384011-4.01299283 5.98300735-8.46376667 11.96601553-13.20639477 16.8180889l-55.48874744 16.81808808 45.56571021 8.20839468c-5.91004441 5.2533729-12.51324179 10.47026349-19.48125641 16.05197214-5.8735621 4.5237376-12.87805901 9.37581098-20.57570892 14.59270074a194.41126538 194.41126538 0 0 1-24.260366 13.86306711 70.15441279 70.15441279 0 0 1-28.27335883 6.71264264c-10.28785447 0-20.2108917-0.36481723-29.40429364-2.26186881a169.74959985 169.74959985 0 0 1-32.35931542-7.84357745c3.31983984-5.21689059 7.00449692-10.83508072 10.68915317-17.54772336 3.28335755-5.61819012 7.33283267-11.96601553 12.11194226-19.44477493 4.74262811-7.4787594 9.55821918-15.68715408 14.70214681-25.02648276 14.33732959-24.66166553 28.27335882-48.95851382 41.88105314-72.89054406 13.60769431-23.89554877 25.71963657-45.6021925 36.73712631-64.64566792 12.51324179-22.4362782 24.260366-43.34032371 35.64267379-63.55121456-14.33732959 16.45327085-29.03947558 35.13192901-44.83607574 55.70763794a1432.34661428 1432.34661428 0 0 0-45.16441068 62.01898104 1619.42504782 1619.42504782 0 0 0-50.70963784 78.87355143c-3.68465708 5.98300735-7.73413137 12.69564999-12.14842456 20.17441021-4.37781006 7.4787594-9.19340195 15.68715408-14.33732877 24.29684829-5.10744534 8.57321191-9.88655493 17.18290612-15.4317821 26.52223482-5.10744534 8.97451145-10.28785447 17.94902289-15.43178128 26.52223479-12.11194226 19.80959216-24.22388453 40.75011914-37.10194355 62.42028058 0.36481723-6.34782541 1.45926975-14.59270157 3.64817478-24.66166552 1.86056927-8.60969422 4.81559189-19.44477493 9.22988425-32.10394346 4.01299283-12.76861377 10.28785447-28.09095063 17.98550436-45.60219168 5.14392764-10.87156301 9.19340195-19.44477493 11.78360651-25.82908181 2.55372308-6.34782541 4.74262811-10.83508072 6.20189785-14.19140205a33.85506747 33.85506747 0 0 1 3.68465708-7.47875939c-1.45926975-1.8240878-1.8240878-5.58170865-0.72963528-10.83508155 0.72963528-4.85207336 2.18890503-11.96601553 5.14392764-21.30534421 2.91854032-9.33932868 7.73413137-22.39979673 14.70214682-39.21788479 7.00449692-17.18290612 16.16141656-35.49674624 27.1789063-55.30633841 11.41878928-19.80959216 23.89554877-39.25436709 38.23287836-58.69914203a730.36470959 730.36470959 0 0 1 45.93052743-56.40079092 473.16834558 473.16834558 0 0 1 50.70963786-48.59369659c17.2558699-14.22788435 34.54822046-25.79259952 51.80409035-34.76711096s34.18340323-14.22788435 50.3448198-15.32233686c1.09445252 11.19989877 0 25.02648276-2.18890502 42.97550647z" p-id="24133"></path></svg>