<?xml version="1.0" standalone="no"?><!DOCTYPE svg PUBLIC "-//W3C//DTD SVG 1.1//EN" "http://www.w3.org/Graphics/SVG/1.1/DTD/svg11.dtd"><svg t="1537069837550" class="icon" style="" viewBox="0 0 1024 1024" version="1.1" xmlns="http://www.w3.org/2000/svg" p-id="24382" xmlns:xlink="http://www.w3.org/1999/xlink" width="200" height="200"><defs><style type="text/css"></style></defs><path d="M374 126C168 126 0 254 0 411 0 506 61 590 154 642c0 1-74 139-74 139s226-88 226-89c22 3 45 5 68 5 207 0 374-128 374-286C748 254 581 126 374 126zM695 215c245 250-44 517-278 517 0 0 26 55 233 55 23 0 46-2 68-5 1 0 226 89 226 89S871 732 870 732c93-52 154-136 154-231C1024 343 866 216 695 215z" p-id="24383"></path></svg>