<?xml version="1.0" standalone="no"?><!DOCTYPE svg PUBLIC "-//W3C//DTD SVG 1.1//EN" "http://www.w3.org/Graphics/SVG/1.1/DTD/svg11.dtd"><svg t="1537070145337" class="icon" style="" viewBox="0 0 1024 1024" version="1.1" xmlns="http://www.w3.org/2000/svg" p-id="7090" xmlns:xlink="http://www.w3.org/1999/xlink" width="200" height="200"><defs><style type="text/css"></style></defs><path d="M1008.533 635.91c-68.35 274.33-346.136 441.174-620.434 372.727C113.929 940.8-53.076 662.405 15.467 388.491 83.72 113.937 361.603-53.004 635.74 15.283c274.33 68.478 441.239 346.232 372.824 620.69v-0.096zM737.627 439.081c10.24-67.839-41.567-104.542-112.637-129.277l23.04-91.87-56.096-14.08-22.4 89.886c-14.719-3.712-30.079-7.136-45.406-10.656l22.431-90.75-56.319-14.08-23.039 92.382c-12.16-2.848-24.096-5.632-35.84-8.543l-77.438-19.2-14.943 60.03s41.599 9.6 40.735 10.08c22.815 5.792 26.88 20.736 26.24 32.672l-63.007 252.57c-3.2 7.072-10.24 17.312-26.208 13.408 0.64 0.864-40.959-10.24-40.959-10.24l-28.16 64.415 72.96 18.175 39.678 10.336-23.04 93.438 56.32 13.952 23.04-92.574c15.359 4.256 30.078 8.096 44.798 11.648l-21.76 91.902 56.32 14.08 23.263-93.439c95.582 18.208 167.676 10.976 197.98-75.678 24.32-69.854-1.28-110.078-51.935-136.349 36.447-8.224 63.998-32.415 71.678-82.334h0.416z m-128.445 180.06c-17.248 69.982-134.685 32-172.796 22.623l30.719-123.741c38.24 9.824 160.285 28.575 142.077 101.118z m17.504-180.892c-15.776 63.582-113.566 31.36-145.277 23.455l27.903-112.637c31.743 7.68 133.853 22.367 117.342 88.926v0.256z" fill="#F7931A" p-id="7091"></path></svg>