<?xml version="1.0" standalone="no"?><!DOCTYPE svg PUBLIC "-//W3C//DTD SVG 1.1//EN" "http://www.w3.org/Graphics/SVG/1.1/DTD/svg11.dtd"><svg t="1537070328525" class="icon" style="" viewBox="0 0 1024 1024" version="1.1" xmlns="http://www.w3.org/2000/svg" p-id="19128" xmlns:xlink="http://www.w3.org/1999/xlink" width="200" height="200"><defs><style type="text/css"></style></defs><path d="M525.184 96.06656h40.44288c80.51712 0 161.024-0.128 241.47456 0 66.88256 0.06144 108.22656 41.40544 108.34944 108.288 0.128 88.704 0 177.408 0 266.112v15.872h-17.34656c-118.52288 0-236.86144-0.18944-355.38944 0.384-13.952 0.06656-17.98656-3.64544-17.85344-17.85344 0.57344-118.46656 0.32256-236.928 0.32256-355.39456v-17.408zM636.032 266.24v47.744h163.84c0-13.184 0.57856-25.472-0.44544-37.69856-0.256-3.52256-4.99712-9.53344-7.74656-9.53344-51.584-0.70656-103.168-0.512-155.648-0.512z" fill="#28CE24" p-id="19129"></path><path d="M673.73056 922.94656l-155.84256-0.06656V819.2c0-92.032 0.06144-184.25344-0.384-276.29056 0-6.656 0.64-14.26944 5.76-19.52256 4.992-5.05344 12.34944-5.69344 18.74944-5.69344 64.57344 0.19456 128.384 0.256 192.128 0.256h188.73344v289.28c-0.18944 71.30112-44.48256 115.65056-115.77344 115.65056-44.47744 0-88.89344 0.06656-133.37088 0.06656zM532.48 908.22656h141.25056c44.416 0 88.89344 0 133.376-0.06656 63.104 0 100.864-37.76 101.05344-100.992 0.06656-51.968 0.06656-103.94112 0.06656-155.904l-0.06656-118.72256-174.08 0.06656c-63.81056 0-127.616-0.06656-191.36-0.384-6.97344 0-8.64256 1.08544-9.14944 1.46944-0.45056 0.64-1.47456 2.56-1.408 9.02656 0.45056 92.16 0.384 184.25344 0.32256 276.48v89.02656z m269.568-137.66656h-169.28256v-51.01056h169.33888v51.01056h-0.05632z m-154.68544-14.592h140.032v-21.76h-140.032v21.76z m154.55744-53.05856h-169.41056v-50.816h169.41056v50.816z m-154.81344-14.58688h140.09344v-21.632h-140.09344v21.632z" fill="#B2B2B2" p-id="19130"></path><path d="M486.33344 915.584h-45.056c-78.976 0-157.88544 0.06656-236.86656-0.06656-66.88256 0-108.288-41.41056-108.34944-108.288-0.06656-88.69888 0-177.34144 0-266.112v-15.81056h17.408c118.4 0 236.86144 0.19456 355.26144-0.32256 14.08-0.18944 17.98656 3.71712 17.92 17.85856-0.57344 118.33344-0.384 236.8-0.384 355.26144 0.06656 5.06368 0.06656 10.05568 0.06656 17.47968z m-193.14688-172.61056c8.192 14.08 14.65344 26.11712 22.016 37.63712 2.432 3.77344 6.97344 8.38144 10.81344 8.69888 14.08 1.024 28.22656 0.32256 45.37856 0.32256-11.776-17.65888-21.82656-32.82944-31.93856-48.06144-21.504-32.19456-21.56544-32.128 0.256-64.51712 9.472-14.08 19.00544-28.22656 30.08-44.73344-14.14656 0-24.38656 0.70656-34.49856-0.18944-10.624-0.83456-17.08544 2.432-21.632 12.34944-4.992 11.06944-11.97056 21.12-18.816 33.09056-7.936-13.50656-14.592-25.53856-22.016-37.18656-2.176-3.39456-6.4-7.36256-9.856-7.61344-14.01344-0.90112-28.032-0.384-44.98944-0.384 16 24.064 29.568 45.56288 44.288 66.304 6.08256 8.50944 5.888 14.40256-0.128 22.77888-15.42656 21.504-29.696 43.71456-46.27456 68.16256 14.464 0 25.6-0.70144 36.67456 0.26112 10.17344 0.76288 15.93344-2.82112 20.352-11.97056 5.57056-11.20256 12.544-21.69856 20.29056-34.94912z" fill="#D8613D" p-id="19131"></path><path d="M96 486.4v-15.93344c0-88.64256-0.06656-177.34656 0-266.112 0.06656-66.88256 41.472-108.16 108.416-108.22656 88.192-0.128 176.384 0 264.64256 0h17.21856V113.664c0 118.4-0.19456 236.86144 0.384 355.26144 0.06656 14.40256-4.096 17.92-18.048 17.792C350.208 486.20544 231.74656 486.4 113.34656 486.4H96zM205.312 269.184V312.32h66.75456v66.36544h43.648V311.68h66.24256v-43.264h-67.328v-65.792h-43.264v66.56H205.312z" fill="#DDAE2A" p-id="19132"></path></svg>