<?xml version="1.0" standalone="no"?><!DOCTYPE svg PUBLIC "-//W3C//DTD SVG 1.1//EN" "http://www.w3.org/Graphics/SVG/1.1/DTD/svg11.dtd"><svg t="1537070479670" class="icon" style="" viewBox="0 0 1024 1024" version="1.1" xmlns="http://www.w3.org/2000/svg" p-id="23245" xmlns:xlink="http://www.w3.org/1999/xlink" width="200" height="200"><defs><style type="text/css"></style></defs><path d="M672 832 224 832c-52.928 0-96-43.072-96-96L128 160c0-52.928 43.072-96 96-96l448 0c52.928 0 96 43.072 96 96l0 576C768 788.928 724.928 832 672 832zM224 128C206.368 128 192 142.368 192 160l0 576c0 17.664 14.368 32 32 32l448 0c17.664 0 32-14.336 32-32L704 160c0-17.632-14.336-32-32-32L224 128zM800 960 320 960c-17.664 0-32-14.304-32-32s14.336-32 32-32l480 0c17.664 0 32-14.336 32-32L832 256c0-17.664 14.304-32 32-32s32 14.336 32 32l0 608C896 916.928 852.928 960 800 960zM544 320 288 320c-17.664 0-32-14.336-32-32s14.336-32 32-32l256 0c17.696 0 32 14.336 32 32S561.696 320 544 320zM608 480 288.032 480c-17.664 0-32-14.336-32-32s14.336-32 32-32L608 416c17.696 0 32 14.336 32 32S625.696 480 608 480zM608 640 288 640c-17.664 0-32-14.304-32-32s14.336-32 32-32l320 0c17.696 0 32 14.304 32 32S625.696 640 608 640z" fill="#d4237a" p-id="23246"></path></svg>