<?xml version="1.0" standalone="no"?><!DOCTYPE svg PUBLIC "-//W3C//DTD SVG 1.1//EN" "http://www.w3.org/Graphics/SVG/1.1/DTD/svg11.dtd"><svg t="1537070530863" class="icon" style="" viewBox="0 0 1024 1024" version="1.1" xmlns="http://www.w3.org/2000/svg" p-id="23369" xmlns:xlink="http://www.w3.org/1999/xlink" width="200" height="200"><defs><style type="text/css"></style></defs><path d="M778.89903002 155.23381975L246.56152106 155.23381975c-49.01044709 0-88.72353974 39.71022363-88.72353974 88.71990372l0 29.57371588 709.78334568 0 0-29.57371588C867.62256976 194.94404338 827.91071866 155.23381975 778.89903002 155.23381975M623.92283591 96.08763073l13.05430031 93.3398264L388.48341485 189.42745835l13.05305877-93.3398264L623.92283591 96.08763073M631.02812038 36.94144291l-236.59444816 0c-24.40462458 0-47.10527188 19.7538951-50.51322519 43.95508744l-17.29933888 123.75183391c-3.37938811 24.17138681 13.83425517 43.92652345 38.23887853 43.92652344l295.7430608 0c24.40338181 0 41.61826785-19.7538951 38.21031333-43.95508743l-17.30058043-123.7518339C678.13090918 56.69533802 655.43150341 36.94144291 631.02812038 36.94144291M793.68587279 332.67238562L231.77343674 332.67238562c-32.51962706 0-56.75161888 26.51239583-53.80567616 58.91519283L226.43174301 924.36526845c2.91613476 32.40403854 31.97192086 58.91519283 64.49154792 58.91519283l443.61521197 0c32.51962706 0 61.5741704-26.51239583 64.49154792-58.91519283l48.46273968-532.77769C850.43749168 359.18478145 826.20549985 332.67238562 793.68587279 332.67238562M394.43367222 864.98808445l-88.72353973 0-29.57492709-414.02332077 118.29722407 0L394.43243069 864.98808445zM571.87950896 864.98808445l-118.29722409 0L453.58228487 450.96476368l118.29722409 0L571.87950896 864.98808445zM719.75041858 864.98808445l-88.72353974 0L631.02687884 450.96476368l118.29722408 0L719.75041858 864.98808445z" fill="#e8453c" p-id="23370"></path></svg>