<?xml version="1.0" standalone="no"?><!DOCTYPE svg PUBLIC "-//W3C//DTD SVG 1.1//EN" "http://www.w3.org/Graphics/SVG/1.1/DTD/svg11.dtd"><svg t="1537070705961" class="icon" style="" viewBox="0 0 1024 1024" version="1.1" xmlns="http://www.w3.org/2000/svg" p-id="23791" xmlns:xlink="http://www.w3.org/1999/xlink" width="200" height="200"><defs><style type="text/css"></style></defs><path d="M869.376 944.128h-46.08V65.536h46.08c25.6 0 46.08 20.48 46.08 45.056v787.456c0 25.6-20.48 46.08-46.08 46.08zM245.76 898.048v-45.056h75.776c50.176 0 91.136-40.96 91.136-91.136s-40.96-91.136-91.136-91.136H245.76v-75.776h75.776c50.176 0 91.136-40.96 91.136-91.136s-40.96-91.136-91.136-91.136H245.76V337.92h75.776c50.176 0 91.136-40.96 91.136-91.136s-40.96-91.136-91.136-91.136H245.76v-45.056c0-24.576 20.48-45.056 46.08-45.056H778.24v878.592H290.816c-24.576 0-45.056-20.48-45.056-46.08z m120.832-650.24c0 24.576-20.48 45.056-46.08 45.056H199.68c-25.6 0-46.08-20.48-46.08-45.056s20.48-45.056 46.08-45.056h121.856c25.6-1.024 45.056 19.456 45.056 45.056zM199.68 459.776h121.856c25.6 0 46.08 20.48 46.08 45.056 0 24.576-20.48 45.056-46.08 45.056H199.68c-25.6 0-46.08-20.48-46.08-45.056 0-24.576 20.48-45.056 46.08-45.056z m0 257.024h121.856c25.6 0 46.08 20.48 46.08 45.056 0 25.6-20.48 45.056-46.08 45.056H199.68c-25.6 0-46.08-20.48-46.08-45.056 0-24.576 20.48-45.056 46.08-45.056z" fill="#fabb2d" p-id="23792"></path></svg>