<?xml version="1.0" standalone="no"?><!DOCTYPE svg PUBLIC "-//W3C//DTD SVG 1.1//EN" "http://www.w3.org/Graphics/SVG/1.1/DTD/svg11.dtd"><svg t="1537070972666" class="icon" style="" viewBox="0 0 1024 1024" version="1.1" xmlns="http://www.w3.org/2000/svg" p-id="3273" xmlns:xlink="http://www.w3.org/1999/xlink" width="200" height="200"><defs><style type="text/css"></style></defs><path d="M950.878 856.8163H73.12195918367347c-23.0504 0-41.7541 18.7037-41.7959 41.775 0 11.5148 4.096 21.3577 12.2462 29.5288 8.1711 8.1711 18.014 12.2462 29.5497 12.2462h877.756081632653c11.5357 0 21.3786-4.096 29.5497-12.2462 8.1502-8.1502 12.2253-17.9931 12.2462-29.5288C992.6322 875.52 973.9494 856.8163 950.878 856.8163z" fill="#376ad3" p-id="3274"></path><path d="M491.0602 765.3251c5.2663 5.0782 12.497 7.7531 20.9398 7.7531s15.6735-2.6749 20.9398-7.7531l266.0937-256.0627c6.6038-6.353 7.8158-14.4823 3.2392-21.8384C797.696 480.0888 773.3708 480.6531 762.7755 480.6531h-104.48979591836734V104.48979591836734c0-22.7997-12.1626-41.7959-41.7959-41.7959h-208.97959183673467c-29.6333 0-41.7959 18.9962-41.7959 41.7959v376.1632653061224h-125.38775510204081c-10.5953 0-14.0225-0.5642-18.5992 6.7709-4.5976 7.3561-3.3855 15.4854 3.2183 21.8384L491.0602 765.3251z" fill="#376ad3" p-id="3275"></path></svg>