<?xml version="1.0" standalone="no"?><!DOCTYPE svg PUBLIC "-//W3C//DTD SVG 1.1//EN" "http://www.w3.org/Graphics/SVG/1.1/DTD/svg11.dtd"><svg t="1537071042382" class="icon" style="" viewBox="0 0 1025 1024" version="1.1" xmlns="http://www.w3.org/2000/svg" p-id="3273" xmlns:xlink="http://www.w3.org/1999/xlink" width="200.1953125" height="200"><defs><style type="text/css"></style></defs><path d="M775.56223971 426.3185094v-130.35535813c0-15.00444487-12.15292141-27.15736628-27.15736628-27.15736627s-27.15736628 12.15292141-27.15736627 27.15736627v130.35535813c0 40.32868892-15.68337903 78.2811083-44.26650703 106.86423629-28.51523459 28.51523459-66.46765396 44.26650703-106.8642363 44.26650704H339.68651098l76.31219923-76.24430582c10.59137286-10.65926626 10.59137286-27.83630043 0-38.42767329-5.29568642-5.29568642-12.22081482-7.94352964-19.21383664-7.94352964s-13.91815022 2.64784322-19.21383664 7.94352964L256.38128993 583.96702062c-5.09200618 5.09200618-7.94352964 12.01713458-7.94352964 19.21383665s2.85152347 14.12183047 7.94352965 19.21383664l124.72020461 124.78809804c10.65926626 10.59137286 27.83630043 10.65926626 38.42767328 0s10.59137286-27.83630043 0-38.42767328L342.53803444 631.76398527h227.57872939c54.85787988 0 106.45687581-21.31853253 145.29190957-60.1535663s60.22145973-90.43402971 60.15356631-145.29190957z" fill="#ffffff" p-id="3274"></path></svg>