<?xml version="1.0" standalone="no"?><!DOCTYPE svg PUBLIC "-//W3C//DTD SVG 1.1//EN" "http://www.w3.org/Graphics/SVG/1.1/DTD/svg11.dtd"><svg t="1537071458062" class="icon" style="" viewBox="0 0 1024 1024" version="1.1" xmlns="http://www.w3.org/2000/svg" p-id="7492" xmlns:xlink="http://www.w3.org/1999/xlink" width="200" height="200"><defs><style type="text/css"></style></defs><path d="M509.8 231.8c86.2 0 144 36.8 176.9 68.5l120.5-116.1C729.9 111.7 629.7 68 509.9 68c-172.3 0-321.4 98-395 241.2L249.4 422c37-110.5 139.7-190.2 260.4-190.2z" fill="#EA4335" p-id="7493"></path><path d="M234.6 512.1c0-31.6 5.4-61.8 14.9-90.1L114.8 309.2c-31.2 60.8-49 129.7-49 202.8 0 67.4 15.1 131.2 41.9 188.4l137.1-113.6c-6.5-23.8-10.2-48.8-10.2-74.7z" fill="#FBBC05" p-id="7494"></path><path d="M509.8 792.3c-126.2 0-232.7-87.1-265-205.5L107.7 700.4C178.6 851.5 331.8 956 509.9 956c120.6 0 221.7-40.3 295.4-109L667.1 746.6c-38.2 26.8-89.5 45.7-157.3 45.7z" fill="#34A853" p-id="7495"></path><path d="M936.1 522.2c0-29.1-3.1-51.3-6.9-73.5l-419.4-0.2-0.1 0.1v152.3h251.8C755.2 641 727.8 704 667 746.7L805.3 847c82.8-77.3 130.8-190.6 130.8-324.8z" fill="#4285F4" p-id="7496"></path></svg>