<?xml version="1.0" standalone="no"?><!DOCTYPE svg PUBLIC "-//W3C//DTD SVG 1.1//EN" "http://www.w3.org/Graphics/SVG/1.1/DTD/svg11.dtd"><svg t="1537071601813" class="icon" style="" viewBox="0 0 1024 1024" version="1.1" xmlns="http://www.w3.org/2000/svg" p-id="3364" xmlns:xlink="http://www.w3.org/1999/xlink" width="200" height="200"><defs><style type="text/css"></style></defs><path d="M512 512m-512 0a512 512 0 1 0 1024 0 512 512 0 1 0-1024 0Z" fill="#376ad3" p-id="3365"></path><path d="M524.8 192c-64 0-115.2 19.2-153.6 57.6-32 38.4-51.2 89.6-51.2 153.6h70.4c0-44.8 12.8-76.8 32-102.4 19.2-32 51.2-44.8 96-44.8 38.4 0 70.4 12.8 89.6 32 19.2 19.2 32 44.8 32 83.2 0 25.6-6.4 51.2-25.6 70.4l-32 32c-51.2 44.8-76.8 76.8-89.6 102.4-12.8 25.6-19.2 51.2-19.2 76.8v19.2h70.4v-19.2c0-25.6 6.4-44.8 19.2-64 6.4-12.8 19.2-32 44.8-51.2 38.4-32 64-57.6 70.4-70.4 19.2-32 32-64 32-102.4 0-51.2-19.2-96-51.2-128S582.4 192 524.8 192zM512 736c-12.8 0-25.6 6.4-38.4 12.8-12.8 12.8-12.8 25.6-12.8 38.4s6.4 25.6 12.8 38.4c12.8 12.8 25.6 12.8 38.4 12.8 12.8 0 25.6-6.4 38.4-12.8 12.8-12.8 19.2-25.6 19.2-38.4 0-12.8-6.4-25.6-12.8-38.4-19.2-6.4-32-12.8-44.8-12.8z" fill="#FFFFFF" p-id="3366"></path></svg>