<?xml version="1.0" standalone="no"?><!DOCTYPE svg PUBLIC "-//W3C//DTD SVG 1.1//EN" "http://www.w3.org/Graphics/SVG/1.1/DTD/svg11.dtd"><svg t="1537071651520" class="icon" style="" viewBox="0 0 1056 1024" version="1.1" xmlns="http://www.w3.org/2000/svg" p-id="3495" xmlns:xlink="http://www.w3.org/1999/xlink" width="206.25" height="200"><defs><style type="text/css"></style></defs><path d="M167.04728 323.67512C173.30015 311.5112 181.51601 296.05397 187.59899 286.51319 262.16243 169.56473 393.02312 92 542 92 773.95958 92 962 280.04042 962 512 962 743.95958 773.95958 932 542 932 391.17995 932 258.92717 852.50414 184.85741 733.12814 174.74411 716.82881 171.32057 708.75971 171.32057 708.75971 163.74398 693.94835 145.4408 687.20678 130.10576 693.50558 114.66377 699.84827 108.24851 716.83466 115.53806 731.54381 115.53806 731.54381 120.38735 742.56506 131.13644 760.31264 215.24861 899.18837 367.78565 992 542 992 807.09668 992 1022 777.09668 1022 512 1022 246.90332 807.09668 32 542 32 370.24751 32 219.56399 122.20709 134.74313 257.82764 130.45181 264.68903 125.17466 274.29395 120.13457 283.86665L103.92491 181.52285C101.35691 165.3092 86.12315 154.24853 69.64451 156.85847 53.27993 159.45038 42.13997 174.97526 44.69294 191.09417L68.18096 339.39167C73.35983 372.08972 103.83179 394.43537 136.76315 389.21957L285.06068 365.73155C301.37663 363.14735 312.52025 347.90045 309.91028 331.42178 307.3184 315.05723 291.85457 303.90758 275.85986 306.4409L167.04728 323.67512 167.04728 323.67512 167.04728 323.67512ZM542 241.86194C542 225.36965 528.68405 212 512 212 495.43145 212 482 225.67283 482 242.07419L482 511.7441C482 545.0225 509.0585 572 542.2559 572L811.92581 572C828.53531 572 842 558.68405 842 542 842 525.43145 828.33008 512 812.13806 512L571.86194 512C555.36965 512 542 498.33008 542 482.13806L542 241.86194 542 241.86194 542 241.86194Z" fill="#3367D6" p-id="3496"></path></svg>