<?xml version="1.0" standalone="no"?><!DOCTYPE svg PUBLIC "-//W3C//DTD SVG 1.1//EN" "http://www.w3.org/Graphics/SVG/1.1/DTD/svg11.dtd"><svg t="1553613289795" class="icon" style="" viewBox="0 0 1024 1024" version="1.1" xmlns="http://www.w3.org/2000/svg" p-id="1436" xmlns:xlink="http://www.w3.org/1999/xlink" width="200" height="200"><defs><style type="text/css"></style></defs><path d="M64 128l0 768 960 0L1024 128 64 128zM512 192l0 128L128 320 128 192 512 192zM128 576 128 384l384 0 0 192L128 576zM128 640l256 0 0 192L128 832 128 640zM960 832 448 832l0-192 512 0L960 832zM960 576 576 576 576 384 576 320 576 192l384 0L960 576z" p-id="1437" fill="#3a6dd0"></path></svg>