<?xml version="1.0" standalone="no"?><!DOCTYPE svg PUBLIC "-//W3C//DTD SVG 1.1//EN" "http://www.w3.org/Graphics/SVG/1.1/DTD/svg11.dtd"><svg t="1537071765328" class="icon" style="" viewBox="0 0 1024 1024" version="1.1" xmlns="http://www.w3.org/2000/svg" p-id="3394" xmlns:xlink="http://www.w3.org/1999/xlink" width="200" height="200"><defs><style type="text/css"></style></defs><path d="M512 108.47c54.496 0 107.338 10.662 157.058 31.692 48.047 20.322 91.206 49.425 128.28 86.498 37.075 37.075 66.177 80.235 86.499 128.28C904.867 404.662 915.53 457.504 915.53 512s-10.663 107.338-31.693 157.058c-20.322 48.047-49.425 91.206-86.498 128.28-37.075 37.075-80.235 66.177-128.28 86.499-49.721 21.03-102.563 31.693-157.059 31.693s-107.338-10.663-157.058-31.693c-48.046-20.322-91.206-49.425-128.28-86.498-37.075-37.075-66.177-80.234-86.499-128.281-21.03-49.72-31.693-102.562-31.693-157.058 0-54.496 10.663-107.338 31.693-157.058 20.322-48.046 49.425-91.206 86.498-128.28 37.075-37.075 80.235-66.177 128.28-86.499 49.72-21.03 102.563-31.693 157.059-31.693m0-45.025C264.27 63.444 63.444 264.269 63.444 512S264.27 960.556 512 960.556c247.731 0 448.556-200.825 448.556-448.556S759.73 63.444 512 63.444z" fill="#f78c35" p-id="3395"></path><path d="M449.7 706.874c-25.997 0-37.977-26.883-41.914-35.716-6.665-14.958-12.058-33.663-17.767-53.466-5.176-17.953-10.528-36.518-16.608-50.972-6.524-15.508-11.259-19.781-12.572-20.735-5.225 0.823-21.92 11.79-46.365 55.513-17.877 31.977-30.536 64.667-30.662 64.994-4.47 11.6-17.498 17.381-29.097 12.919-11.601-4.466-17.388-17.486-12.925-29.089 0.553-1.438 13.775-35.634 33.149-70.374 30.073-53.924 57.56-79.039 86.504-79.039 20.403 0 37.275 13.765 50.151 40.91 8.698 18.338 15.303 41.247 21.69 63.4 4.274 14.826 8.31 28.83 12.597 40.178a143.76 143.76 0 0 0 2.705 6.685c2.856-5.882 6.557-14.425 11.19-26.792 8.508-22.718 17.64-51.35 27.31-81.663 40.273-126.27 67.286-203.66 113.173-203.66 48.07 0 73.721 51.68 92.452 89.415 4.276 8.616 10.211 20.575 14.63 27.367 3.748-2.99 9.907-9.117 18.367-21.463 8.95-13.058 15.3-25.656 15.364-25.781 5.574-11.106 19.098-15.604 30.21-10.037s15.613 19.073 10.055 30.189c-0.35 0.699-8.694 17.308-20.585 34.094-19.376 27.353-37.908 40.65-56.659 40.65-19.084 0-30.41-17.022-34.131-22.616-5.935-8.918-11.591-20.317-17.582-32.384-13.177-26.547-31.108-62.677-50.714-64.347-2.899 1.97-13.514 11.678-31.418 55.506-13.813 33.812-27.261 75.975-40.266 116.749-11.401 35.744-22.168 69.506-32.352 94.922-11.082 27.649-23.908 54.643-47.93 54.643z" fill="#f78c35" p-id="3396"></path></svg>