<?xml version="1.0" standalone="no"?><!DOCTYPE svg PUBLIC "-//W3C//DTD SVG 1.1//EN" "http://www.w3.org/Graphics/SVG/1.1/DTD/svg11.dtd"><svg t="1542293927553" class="icon" style="" viewBox="0 0 1024 1024" version="1.1" xmlns="http://www.w3.org/2000/svg" p-id="2055" xmlns:xlink="http://www.w3.org/1999/xlink" width="200" height="200"><defs><style type="text/css"></style></defs><path d="M538.363217 266.292938c-73.156657 0-132.69244-59.719326-132.692439-133.127149C405.670778 59.777287 465.20656 0.028981 538.363217 0.028981s132.663459 59.719326 132.663459 133.136808c0 73.407822-59.506802 133.127148-132.663459 133.127149zM255.889453 372.023773c-66.819569 0-121.206468-54.551122-121.206468-121.631517 0-67.090055 54.386898-121.641176 121.206468-121.641176 66.906511 0.086942 121.119526 54.502821 121.187147 121.641176 0 67.051414-54.367578 121.631516-121.187147 121.631517zM135.842209 647.155789C76.828077 647.097828 29.010111 599.096318 28.981131 539.879322c0.057961-59.197675 47.875927-107.170204 106.861078-107.237825 58.994811 0.077282 106.793457 48.04015 106.851417 107.237825-0.038641 59.197675-47.846946 107.189525-106.851417 107.257146v0.019321z m120.047244 272.572064c-50.03015-0.057961-90.573989-40.746703-90.62229-90.950736 0.067621-50.184713 40.59214-90.854135 90.602969-90.931417 50.03015 0.067621 90.564329 40.737043 90.631951 90.931417 0 50.136412-40.640441 90.950737-90.61263 90.950736z m282.473764 104.214185c-43.712383-0.038641-79.136318-35.588159-79.174959-79.445445 0-43.808985 35.520537-79.435784 79.174959-79.435784 43.702723 0.048301 79.116998 35.588159 79.155639 79.435784 0 43.818645-35.501217 79.445444-79.174959 79.445445h0.01932z m286.753231-134.276712c-35.279032-0.038641-63.86355-28.71976-63.902191-64.114715 0.038641-35.404615 28.623158-64.076074 63.902191-64.114714 35.269372 0.038641 63.86355 28.7101 63.90219 64.114714-0.038641 35.394955-28.632818 64.076074-63.90219 64.114715z m117.438991-296.674251c-28.941944-0.038641-52.396898-23.561216-52.435538-52.609422 0.028981-29.038546 23.483934-52.580442 52.435538-52.619083 28.941944 0.038641 52.396898 23.570876 52.4452 52.609422-0.048301 29.048207-23.503255 52.570782-52.4452 52.619083zM784.437366 254.323956a40.746703 40.746703 0 0 0 40.679082 40.833644 40.746703 40.746703 0 0 0 40.688742-40.814324 40.746703 40.746703 0 0 0-40.679082-40.823984 40.746703 40.746703 0 0 0-40.688742 40.823984v-0.01932z" fill="#23B48C" p-id="2056"></path></svg>