<?xml version="1.0" standalone="no"?><!DOCTYPE svg PUBLIC "-//W3C//DTD SVG 1.1//EN" "http://www.w3.org/Graphics/SVG/1.1/DTD/svg11.dtd"><svg t="1537088450892" class="icon" style="" viewBox="0 0 1024 1024" version="1.1" xmlns="http://www.w3.org/2000/svg" p-id="64005" xmlns:xlink="http://www.w3.org/1999/xlink" width="200" height="200"><defs><style type="text/css"></style></defs><path d="M635.733333 256c81.066667 0 149.333333 64 149.333334 136.533333 0 25.6-8.533333 46.933333-21.333334 68.266667-17.066667 29.866667-46.933333 51.2-85.333333 64-8.533333 4.266667-17.066667 4.266667-25.6 4.266667-17.066667 0-29.866667-12.8-29.866667-29.866667 0-17.066667 12.8-29.866667 29.866667-29.866667h4.266667c25.6-8.533333 42.666667-21.333333 55.466666-38.4 8.533333-12.8 12.8-25.6 12.8-38.4 0-46.933333-42.666667-81.066667-93.866666-81.066666-17.066667 0-34.133333 4.266667-51.2 12.8-25.6 17.066667-42.666667 42.666667-42.666667 68.266666v238.933334c0 46.933333-25.6 93.866667-72.533333 119.466666-25.6 12.8-51.2 21.333333-76.8 21.333334-81.066667 0-149.333333-64-149.333334-136.533334 0-25.6 8.533333-46.933333 21.333334-68.266666 17.066667-29.866667 46.933333-51.2 85.333333-64 8.533333-4.266667 17.066667-4.266667 25.6-4.266667 17.066667 0 29.866667 12.8 29.866667 29.866667 0 17.066667-12.8 29.866667-29.866667 29.866666h-4.266667c-25.6 8.533333-42.666667 21.333333-55.466666 38.4-8.533333 12.8-12.8 25.6-12.8 38.4 0 46.933333 42.666667 81.066667 93.866666 81.066667 17.066667 0 34.133333-4.266667 51.2-12.8 25.6-17.066667 42.666667-42.666667 42.666667-68.266667V392.533333c0-46.933333 25.6-93.866667 72.533333-119.466666 21.333333-8.533333 51.2-17.066667 76.8-17.066667zM55.466667 512c0 251.733333 204.8 456.533333 456.533333 456.533333S968.533333 763.733333 968.533333 512 763.733333 55.466667 512 55.466667 55.466667 260.266667 55.466667 512zM0 512C0 230.4 230.4 0 512 0s512 230.4 512 512-230.4 512-512 512S0 793.6 0 512z" fill="#1097D5" p-id="64006"></path></svg>