<?xml version="1.0" standalone="no"?><!DOCTYPE svg PUBLIC "-//W3C//DTD SVG 1.1//EN" "http://www.w3.org/Graphics/SVG/1.1/DTD/svg11.dtd"><svg t="1537071951444" class="icon" style="" viewBox="0 0 1024 1024" version="1.1" xmlns="http://www.w3.org/2000/svg" p-id="7510" xmlns:xlink="http://www.w3.org/1999/xlink" width="200" height="200"><defs><style type="text/css"></style></defs><path d="M967.22432 235.26912c-2.7904-68.43904-59.72992-123.26912-129.36192-123.26912H185.81504c-65.95584 0-120.51456 49.19808-128.4608 112.55808A127.38048 127.38048 0 0 0 56.32 240.52224V782.0544c0 3.0208 0.14336 6.01088 0.34816 8.98048 4.66944 66.688 60.78464 119.53152 129.14688 119.53152h652.05248c71.40352 0 129.49504-57.64608 129.49504-128.512V240.52224c0-1.76128-0.06656-3.51232-0.13824-5.25312z m-51.06176 13.53216v533.248c0 42.76224-35.1232 77.53728-78.29504 77.53728H185.81504c-43.17184 0-78.29504-34.77504-78.29504-77.53728V240.52224c0-42.76224 35.1232-77.54752 78.29504-77.54752h652.05248c43.17184 0 78.29504 34.7904 78.29504 77.54752v8.27904z" fill="#fabb2d" p-id="7511"></path><path d="M420.06016 579.73248c-18.78528-15.97952-43.18208-35.77344-66.12992-57.13408-4.0704-3.79392-5.65248-17.50528-2.41152-20.83328 49.6896-51.08736 100.36736-101.21216 148.8384-149.5808l79.54432 74.44992-159.84128 153.09824zM606.52032 404.85888l-84.21888-78.8736c19.12832-17.74592 36.0704-36.864 56.54016-50.7392 7.99232-5.41696 26.26048-2.84672 35.75808 2.87232 14.12096 8.50432 23.94112 23.82336 36.81792 34.81088 19.22048 16.39936 14.55104 31.80032-0.19968 47.20128-14.06976 14.67904-28.72832 28.8-44.6976 44.72832zM393.30304 592.90112l-83.33312 35.10784-5.67808-4.41856 29.98272-78.81728 59.02848 48.128zM722.77504 701.3888a23.63392 23.63392 0 0 1-23.6288 23.63392H312.7808a23.6288 23.6288 0 1 1 0-47.26272h386.36544a23.6288 23.6288 0 0 1 23.6288 23.6288zM722.77504 604.27776a23.56224 23.56224 0 0 1-23.56224 23.55712H484.49024a23.56224 23.56224 0 0 1 0-47.11936h214.72256a23.56736 23.56736 0 0 1 23.56224 23.56224z" fill="#fabb2d" p-id="7512"></path></svg>