<?xml version="1.0" standalone="no"?><!DOCTYPE svg PUBLIC "-//W3C//DTD SVG 1.1//EN" "http://www.w3.org/Graphics/SVG/1.1/DTD/svg11.dtd"><svg t="1541688224889" class="icon" style="" viewBox="0 0 1024 1024" version="1.1" xmlns="http://www.w3.org/2000/svg" p-id="5889" xmlns:xlink="http://www.w3.org/1999/xlink" width="200" height="200"><defs><style type="text/css"></style></defs><path d="M511.9 270.7C316 270.7 148.6 411.8 82 476.7c-18 17.6-18 46.3 0 63.9 21.6 21.1 53.9 50.2 94.3 79.8L343 531c-1-7.3-1.6-14.7-1.6-22.3 0-93.7 76.4-169.7 170.6-169.7 42.7 0 81.6 15.7 111.5 41.5l104.7-56.2C663.7 293.1 590.1 270.7 511.9 270.7zM400.8 500l165-88.6c-16-8.8-34.3-13.8-53.8-13.8C453.2 397.6 405.2 442.7 400.8 500zM927.8 285.5c-7.4-13.7-24.6-18.8-38.4-11.4L107.5 693.7c-13.8 7.4-18.9 24.5-11.5 38.2 5.1 9.5 14.9 14.8 25 14.8 4.5 0 9.1-1.1 13.4-3.4l781.8-419.6C930.1 316.3 935.2 299.2 927.8 285.5zM458.1 605.9c16 8.8 34.3 13.8 53.8 13.8 58.7 0 106.7-45.1 111.1-102.4L458.1 605.9zM941.8 476.7c-21.6-21.1-53.9-50.2-94.3-79.8l-166.7 89.5c1 7.3 1.6 14.7 1.6 22.3 0 93.7-76.4 169.7-170.6 169.7-42.7 0-81.6-15.7-111.5-41.5l-104.7 56.2c64.5 31.1 138.1 53.6 216.2 53.6 195.9 0 363.3-141.1 429.9-206.1C959.9 523 959.9 494.3 941.8 476.7z" p-id="5890" fill="#d4237a"></path></svg>