<?xml version="1.0" standalone="no"?><!DOCTYPE svg PUBLIC "-//W3C//DTD SVG 1.1//EN" "http://www.w3.org/Graphics/SVG/1.1/DTD/svg11.dtd"><svg t="1537089052652" class="icon" style="" viewBox="0 0 1024 1024" version="1.1" xmlns="http://www.w3.org/2000/svg" p-id="11996" xmlns:xlink="http://www.w3.org/1999/xlink" width="200" height="200"><defs><style type="text/css"></style></defs><path d="M733.909 264.8c0 0-175.415 8.442-237.668 11.239-38.476 1.757-59.403-30.891-25.462-64.632 26.082-25.861 35.579-33.163 31.126-81.455-5.106-55.3-60.796-73.275-106.505-72.761-47.812 0.565-100.148 25.702-115.563 71.297-10.138 29.901-9.843 60.045 16.38 79.244 14.307 10.491 45.973 25.963 10.453 54.269-19.168 15.289-212.173-2.847-212.173-2.847s-8.503 164.668-2.452 211.576c3.459 26.954 37.042 39.567 59.047 10.413 33.943-44.928 127.788-15.614 132.536 72.587 4.992 92.534-94.373 106.795-115.584 70.702-19.798-33.731-76.355-42.122-78.806 0.898-3.794 66.985 27.769 280.124 27.769 280.124s126.861 29.781 184.038 20.622c26.561-4.301 38.754-49.846 14.135-71.235-22.646-19.652-27.395-124.709 90.793-112.642 92.472 9.443 77.027 89.605 53.497 104.249-22.634 14.037-21.557 57.783 25.483 70.214 64.365 17.056 259.611-25.003 259.611-25.003s-25.797-157.256-17.164-208.215c9.223-54.562 72.207-21.64 80.076-11.219 50.935 67.429 156.563 30.57 156.563-82.616 0-164.839-150.839-136.815-165.034-97.218-15.689 43.604-67.61 32.427-73.252 5.635-13.261-62.582 8.156-233.228 8.156-233.228z" p-id="11997" fill="#e0e0e0"></path></svg>