<?xml version="1.0" standalone="no"?><!DOCTYPE svg PUBLIC "-//W3C//DTD SVG 1.1//EN" "http://www.w3.org/Graphics/SVG/1.1/DTD/svg11.dtd"><svg t="1537072096291" class="icon" style="" viewBox="0 0 1024 1024" version="1.1" xmlns="http://www.w3.org/2000/svg" p-id="3468" xmlns:xlink="http://www.w3.org/1999/xlink" width="200" height="200"><defs><style type="text/css"></style></defs><path d="M1018.905473 466.658706v95.777115a461.564179 461.564179 0 0 1-19.359204 101.890547A509.452736 509.452736 0 0 1 821.237811 917.014925a502.320398 502.320398 0 0 1-242.499503 101.890548l-40.756218 5.094527h-64.191045a787.61393 787.61393 0 0 1-85.58806-13.245771A509.452736 509.452736 0 0 1 5.094527 577.719403V481.942289v-9.17015a466.658706 466.658706 0 0 1 59.096518-203.781094 502.320398 502.320398 0 0 1 407.562189-264.915423h62.153234A483.9801 483.9801 0 0 1 641.910448 18.340299a502.320398 502.320398 0 0 1 238.42388 141.62786 499.263682 499.263682 0 0 1 130.419901 252.688557c8.151244 17.321393 8.151244 35.661692 8.151244 54.00199zM743.800995 321.974129a1426.467662 1426.467662 0 0 1-203.781095 17.321393c-7.132338 0-8.151244 0-8.151243 9.17015v195.62985c0 16.302488 0 16.302488 16.302487 15.283582a1283.820896 1283.820896 0 0 0 203.781095-22.41592c7.132338 0 8.151244 0 8.151244-9.170149a678.591045 678.591045 0 0 0-7.132339-128.38209c2.037811-25.472637-4.075622-50.945274-9.170149-77.436816zM490.093532 560.39801V340.314428h-8.151243a1604.776119 1604.776119 0 0 1-184.421891-14.264677c-7.132338 0-9.170149 0-11.20796 8.151244a686.742289 686.742289 0 0 0-20.37811 198.686567s0 6.113433 6.113433 7.132338l152.835821 18.340299c21.397015 1.018905 42.79403 1.018905 65.20995 2.037811z m40.756219 38.718408V784.557214h16.302488L713.233831 770.292537a17.321393 17.321393 0 0 0 16.302487-13.245771A649.042786 649.042786 0 0 0 761.122388 611.343284a288.350249 288.350249 0 0 0 0-29.548259 1379.59801 1379.59801 0 0 1-230.272637 17.321393z m-40.756219 185.440796V599.116418a1462.129353 1462.129353 0 0 1-221.102487-20.37811v28.529354A624.589055 624.589055 0 0 0 305.671642 766.216915a12.226866 12.226866 0 0 0 11.20796 8.151244l124.306468 10.189055zM226.197015 530.849751a721.385075 721.385075 0 0 1 23.434826-210.913433L101.890547 286.312438A447.299502 447.299502 0 0 0 41.775124 468.696517c0 6.113433 0 8.151244 6.113433 10.189055l70.304478 23.434826c34.642786 7.132338 70.304478 18.340299 108.00398 28.529353z m39.737313 235.367164a645.98607 645.98607 0 0 1-37.699502-185.440796c0-6.113433 0-7.132338-8.151244-8.151243a1243.064677 1243.064677 0 0 1-173.21393-47.888558H40.756219a13.245771 13.245771 0 0 0 0 6.113433A458.507463 458.507463 0 0 0 87.625871 713.233831a16.302488 16.302488 0 0 0 14.264676 10.189055l118.193035 32.604975z m540.019901-239.442786H815.124378a1324.577114 1324.577114 0 0 0 164.043781-50.945273v-9.17015a439.148259 439.148259 0 0 0-26.491542-119.21194c-9.170149-22.41592-19.359204-43.812935-28.529353-65.20995l-141.627861 34.642786a688.7801 688.7801 0 0 1 23.434826 209.894527z m-77.436816-242.499502a547.152239 547.152239 0 0 0-57.058707-108.00398A324.01194 324.01194 0 0 0 540.0199 52.983085h-10.189054V305.671642a1426.467662 1426.467662 0 0 0 198.686567-21.397015z m39.737313 474.80995h9.17015l145.703482-36.680597A19.359204 19.359204 0 0 0 935.355224 713.233831a484.999005 484.999005 0 0 0 42.79403-152.835821v-43.812935a1125.890547 1125.890547 0 0 1-163.024876 49.926368c-6.113433 0-7.132338 0-7.132338 9.170149a757.046766 757.046766 0 0 1-38.718408 178.308458 7.132338 7.132338 0 0 0-1.018906 5.094527zM490.093532 54.00199a335.2199 335.2199 0 0 0-101.890547 79.474627A480.923383 480.923383 0 0 0 305.671642 285.293532a1080.039801 1080.039801 0 0 0 188.497512 13.245771zM419.789055 48.907463a472.772139 472.772139 0 0 0-300.577115 203.781094h6.113433l126.344279 27.510448c8.151244 0 10.189055 0 13.245771-7.132338A494.169154 494.169154 0 0 1 367.824876 101.890547c16.302488-20.378109 33.623881-35.661692 51.964179-52.983084z m478.885572 203.781094A468.696517 468.696517 0 0 0 617.456716 54.00199a497.225871 497.225871 0 0 1 152.835821 224.159204zM123.287562 774.368159a465.639801 465.639801 0 0 0 298.539304 195.629851A407.562189 407.562189 0 0 1 288.350249 815.124378a17.321393 17.321393 0 0 0-10.189055-6.113433l-80.493532-15.283582z m778.443781 0h-8.151243l-137.552239 31.58607a13.245771 13.245771 0 0 0-11.207961 9.170149 414.694527 414.694527 0 0 1-91.701492 122.268657L611.343284 966.941294a463.60199 463.60199 0 0 0 290.388059-197.667662z m-203.781094 40.756219l-167.100498 13.245771v142.646766A374.957214 374.957214 0 0 0 697.950249 815.124378z m-203.781095 13.245771L335.2199 815.124378a376.995025 376.995025 0 0 0 154.873632 148.760199z" fill="#2197db" p-id="3469"></path></svg>