<?xml version="1.0" standalone="no"?><!DOCTYPE svg PUBLIC "-//W3C//DTD SVG 1.1//EN" "http://www.w3.org/Graphics/SVG/1.1/DTD/svg11.dtd"><svg t="1537074338972" class="icon" style="" viewBox="0 0 1449 1024" version="1.1" xmlns="http://www.w3.org/2000/svg" p-id="9592" xmlns:xlink="http://www.w3.org/1999/xlink" width="283.0078125" height="200"><defs><style type="text/css"></style></defs><path d="M1142.173694 478.371241 743.444986 478.371241 743.444986 79.642533c0-13.417101-10.836889-24.426004-24.426004-24.426004-13.417101 0-24.426004 10.836889-24.426004 24.426004l0 398.728708L295.86427 478.371241c-13.417101 0-24.426004 10.836889-24.426004 24.426004 0 13.417101 10.836889 24.426004 24.426004 24.426004l398.728708 0 0 398.728708c0 13.417101 10.836889 24.426004 24.426004 24.426004 13.417101 0 24.426004-10.836889 24.426004-24.426004L743.444986 527.223249 1142.173694 527.223249c13.417101 0 24.426004-10.836889 24.426004-24.426004C1166.599698 489.380144 1155.590795 478.371241 1142.173694 478.371241z" p-id="9593" fill="#366ad3"></path></svg>