<?xml version="1.0" standalone="no"?><!DOCTYPE svg PUBLIC "-//W3C//DTD SVG 1.1//EN" "http://www.w3.org/Graphics/SVG/1.1/DTD/svg11.dtd"><svg t="1537072328388" class="icon" style="" viewBox="0 0 1024 1024" version="1.1" xmlns="http://www.w3.org/2000/svg" p-id="3410" xmlns:xlink="http://www.w3.org/1999/xlink" width="200" height="200"><defs><style type="text/css"></style></defs><path d="M768 128H256C185.429333 128 128 185.429333 128 256v554.666667c0 47.061333 38.272 85.333333 85.333333 85.333333h597.333334c47.061333 0 85.333333-38.272 85.333333-85.333333V256c0-70.570667-57.429333-128-128-128z m42.666667 128v42.666667h-128V213.333333h85.333333c23.509333 0 42.666667 19.114667 42.666667 42.666667z m-384 42.666667V213.333333h170.666666v85.333334h-170.666666zM256 213.333333h85.333333v85.333334H213.333333V256c0-23.552 19.157333-42.666667 42.666667-42.666667zM213.333333 810.666667V384h597.333334v426.666667H213.333333z" fill="#fabb2d" p-id="3411"></path><path d="M705.109333 433.066667a42.581333 42.581333 0 0 0-41.514666-1.877334l-123.52 61.738667 38.186666 76.330667L640 538.410667V768h85.333333v-298.666667a42.666667 42.666667 0 0 0-20.224-36.266666zM426.666667 469.333333H341.333333v85.333334H256v85.333333h85.333333v85.333333h85.333334v-85.333333h85.333333v-85.333333h-85.333333z" fill="#e8453c" p-id="3412"></path></svg>