<?xml version="1.0" standalone="no"?><!DOCTYPE svg PUBLIC "-//W3C//DTD SVG 1.1//EN" "http://www.w3.org/Graphics/SVG/1.1/DTD/svg11.dtd"><svg t="1537072405855" class="icon" style="" viewBox="0 0 1029 1024" version="1.1" xmlns="http://www.w3.org/2000/svg" p-id="3410" xmlns:xlink="http://www.w3.org/1999/xlink" width="200.9765625" height="200"><defs><style type="text/css"></style></defs><path d="M359.86396435 417.68594254v61.84528475h-43.29169596V306.364435H401.60953286c49.47622558 0 71.12207498 18.55358599 72.66820524 55.66075236 0 38.65330227-21.64584939 55.66075517-72.66820524 55.66075518h-41.74556851z m0-24.73811277h34.01490582c26.2842459 0 35.56103889-9.276793 35.56103888-30.92264241 0-23.19198247-10.82292327-30.92264239-35.56103888-30.92263956h-34.01490582v61.84528197zM670.63651298 477.98509422V341.92547105l-43.29169887 136.05962317H587.14538158L545.3998159 341.92547105v136.05962317h-41.74556851V306.364435h66.48368127l37.10716919 123.69056391h1.54613313l37.10716917-123.69056391h68.02981157v171.62065922h-43.29169874z" fill="#2197db" p-id="3411"></path><path d="M468.09321131 689.80518881v24.73811279h-146.88254639v-24.73811279c12.36905639-18.55358599 32.46877271-37.10716916 57.20688543-52.56849174 37.10716916-23.19198247 44.83782909-35.56103889 44.8378319-47.93009249 0-18.55358599-9.276793-26.2842459-27.83037903-26.28424591-17.00745289 0-30.92264239 12.36905639-34.01490578 32.4687727h-41.74556564c7.7306599-37.10716916 35.56103889-57.20688545 78.85273483-57.20688547 46.38396217 0 71.12207498 21.64584939 71.1220778 49.47622555 0 23.19198247-10.82292327 40.19943257-44.83783188 58.75301864-29.37650928 15.46131979-44.83782909 26.2842459-57.20688551 43.29169872h100.49858427zM488.19292761 675.8899993h44.83783187v38.6533023h-44.83783187zM557.76887229 663.52094293c17.00745289 18.55358599 40.19943257 27.83037615 61.84528196 27.830379 26.2842459 0 40.19943257-10.82292327 41.7455657-32.46877551 0-20.09971629-13.91518948-29.37650928-41.7455657-29.3765093h-54.11462204V542.92264239h136.0596231v24.73811278h-92.76792433v38.65330229h24.7381128c47.93009531 0 72.66820807 18.55358599 72.66820802 52.56848896 0 35.56103889-27.83037615 57.20688545-72.66820802 57.2068883-35.56103889 0-57.20688545-7.7306599-74.21434118-24.73811279v-27.830379h-1.54613031z" fill="#2197db" p-id="3412"></path><path d="M255.14444161 201.38206531a55.90813627 55.90813627 0 0 0-55.90813621 55.9235965v509.38867638a55.90813627 55.90813627 0 0 0 55.90813621 55.90813343h509.38867358a55.90813627 55.90813627 0 0 0 55.90813346-55.90813343V257.30566181a55.90813627 55.90813627 0 0 0-55.90813346-55.90813343H255.14444161z m0-37.26178306h509.38867358a93.18537956 93.18537956 0 0 1 93.18537954 93.18537956v509.38867638a93.18537956 93.18537956 0 0 1-93.18537954 93.18537956H255.14444161a93.18537956 93.18537956 0 0 1-93.18538232-93.18537956V257.30566181a93.18537956 93.18537956 0 0 1 93.18538232-93.18537956z" fill="#2197db" p-id="3413"></path></svg>