<?xml version="1.0" standalone="no"?><!DOCTYPE svg PUBLIC "-//W3C//DTD SVG 1.1//EN" "http://www.w3.org/Graphics/SVG/1.1/DTD/svg11.dtd"><svg t="1537072504703" class="icon" style="" viewBox="0 0 1024 1024" version="1.1" xmlns="http://www.w3.org/2000/svg" p-id="4825" xmlns:xlink="http://www.w3.org/1999/xlink" width="200" height="200"><defs><style type="text/css"></style></defs><path d="M628.906667 520.860444c-17.820444 0-31.416889-12.856889-31.658667-29.909333l-1.664-129.28c-0.128-8.007111 2.844444-15.516444 8.362667-21.105778 10.154667-10.339556 28.657778-12.558222 42.296889-4.949333l106.197333 63.459556c10.794667 6.044444 17.265778 15.587556 17.393778 25.984 0.128 9.770667-5.461333 18.716444-15.303111 24.576l-106.567111 65.891556C641.991111 519.068444 635.477333 520.860444 628.906667 520.860444zM628.081778 359.352889c-1.877333 0-3.313778 0.597333-3.868444 1.166222l1.479111 130.062222c0.028444 1.820444 2.261333 3.768889 7.509333 0.625778l106.567111-65.891556c0.156444-0.099556 0.298667-0.184889 0.440889-0.284444-0.512-0.398222-1.180444-0.867556-2.048-1.351111l-106.168889-63.445333C630.741333 359.552 629.134222 359.352889 628.081778 359.352889z" fill="#e73b3f" p-id="4826"></path><path d="M512 973.966222C257.265778 973.966222 50.033778 766.72 50.033778 512 50.033778 257.265778 257.265778 50.033778 512 50.033778S973.966222 257.265778 973.966222 512C973.966222 766.72 766.734222 973.966222 512 973.966222zM512 106.922667C288.64 106.922667 106.922667 288.64 106.922667 512c0 223.36 181.717333 405.077333 405.077333 405.077333S917.077333 735.36 917.077333 512C917.077333 288.64 735.36 106.922667 512 106.922667z" fill="#2390cf" p-id="4827"></path><path d="M855.438222 526.222222c-7.864889 0-14.222222-6.357333-14.222222-14.222222 0-148.010667-99.598222-278.613333-242.190222-317.596444-7.580444-2.076444-12.046222-9.884444-9.969778-17.479111 2.076444-7.580444 9.984-11.989333 17.479111-9.969778C761.457778 209.322667 869.660444 351.203556 869.660444 512 869.660444 519.864889 863.303111 526.222222 855.438222 526.222222z" fill="#fdd058" p-id="4828"></path><path d="M531.185778 183.296c-0.270222 0-0.526222 0-0.796444-0.028444-6.101333-0.327111-12.231111-0.497778-18.389333-0.497778-7.864889 0-14.222222-6.357333-14.222222-14.222222s6.357333-14.222222 14.222222-14.222222c6.684444 0 13.326222 0.199111 19.939556 0.554667 7.850667 0.412444 13.852444 7.125333 13.411556 14.976C544.952889 177.422222 538.680889 183.296 531.185778 183.296z" fill="#fdd058" p-id="4829"></path><path d="M283.832889 684.330667c-26.368 0-43.904-6.229333-44.387556-6.385778-7.367111-2.744889-11.093333-10.951111-8.362667-18.304 2.744889-7.367111 10.965333-11.022222 18.304-8.362667 4.579556 1.692444 114.887111 39.523556 190.620444-115.996444 67.527111-138.581333 167.850667-124.103111 172.060444-123.434667 7.751111 1.251556 13.027556 8.561778 11.776 16.298667-1.251556 7.722667-8.476444 12.942222-16.227556 11.790222-3.598222-0.512-84.280889-10.737778-142.023111 107.818667C409.144889 663.608889 331.861333 684.330667 283.832889 684.330667z" fill="#e73b3f" p-id="4830"></path><path d="M628.081778 736.526222 628.081778 736.526222c-9.301333 0-18.090667-3.527111-24.135111-9.671111-5.518222-5.589333-8.490667-13.112889-8.362667-21.134222l1.664-129.223111c0.241778-17.080889 13.838222-29.937778 31.658667-29.937778 6.570667 0 13.084444 1.806222 18.830222 5.219556l106.979556 66.133333c9.642667 5.717333 15.217778 14.691556 15.104 24.448-0.128 10.410667-6.599111 19.939556-17.720889 26.197333l-105.500444 63.061333C640.711111 734.890667 634.424889 736.526222 628.081778 736.526222zM628.906667 575.004444c-2.104889 0-3.2 0.64-3.214222 1.863111l-1.664 129.251556c1.137778 2.133333 3.797333 3.356444 8.348444 0.867556l105.472-63.032889c1.024-0.583111 1.792-1.109333 2.360889-1.550222-0.071111-0.056889-0.156444-0.085333-0.227556-0.142222l-106.979556-66.133333C631.495111 575.217778 629.916444 575.004444 628.906667 575.004444z" fill="#4ead4d" p-id="4831"></path><path d="M592.967111 656.938667c-37.219556 0-117.475556-13.838222-153.713778-126.691556-19.128889-59.548444-48.483556-98.360889-87.267556-115.328-50.858667-22.243556-101.077333 0.554667-101.589333 0.810667-7.168 3.313778-15.587556 0.213333-18.901333-6.897778-3.299556-7.125333-0.213333-15.587556 6.897778-18.901333 2.531556-1.166222 62.506667-28.387556 124.984889-1.066667 46.577778 20.394667 81.223111 65.038222 102.940444 132.707556 40.078222 124.856889 136.561778 106.894222 140.643556 106.055111 7.694222-1.550222 15.189333 3.413333 16.768 11.107556 1.550222 7.694222-3.427556 15.217778-11.121778 16.782222C612.323556 655.559111 604.828444 656.938667 592.967111 656.938667z" fill="#4ead4d" p-id="4832"></path></svg>