<?xml version="1.0" standalone="no"?><!DOCTYPE svg PUBLIC "-//W3C//DTD SVG 1.1//EN" "http://www.w3.org/Graphics/SVG/1.1/DTD/svg11.dtd"><svg t="1537072585874" class="icon" style="" viewBox="0 0 1024 1024" version="1.1" xmlns="http://www.w3.org/2000/svg" p-id="3439" xmlns:xlink="http://www.w3.org/1999/xlink" width="200" height="200"><defs><style type="text/css"></style></defs><path d="M158.3 512c0-195.3 158.4-353.7 353.7-353.7v106.1c0 19.5 15.9 35.4 35.4 35.4s49.1-35.4 49.1-35.4L795 64H512C264.6 64 64 264.6 64 512c0 117.7 45.7 224.5 120 304.4l66.7-66.7c-57.2-62.8-92.4-146-92.4-237.7zM840 207.6l-66.7 66.7c57.2 62.8 92.4 146.1 92.4 237.8 0 195.3-158.4 353.7-353.7 353.7V759.6c0-19.5-15.8-35.4-35.4-35.4-19.5 0-49.1 35.4-49.1 35.4L229 960h283c247.4 0 448-200.6 448-448 0-117.7-45.7-224.5-120-304.4z" fill="#d4237a" p-id="3440"></path></svg>