<?xml version="1.0" standalone="no"?><!DOCTYPE svg PUBLIC "-//W3C//DTD SVG 1.1//EN" "http://www.w3.org/Graphics/SVG/1.1/DTD/svg11.dtd"><svg t="1537090616759" class="icon" style="" viewBox="0 0 1024 1024" version="1.1" xmlns="http://www.w3.org/2000/svg" p-id="3646" xmlns:xlink="http://www.w3.org/1999/xlink" width="200" height="200"><defs><style type="text/css"></style></defs><path d="M800.576 939.56h-577.152c-79.080 0-143.424-64.296-143.424-143.4v-568.296c0-79.104 64.344-143.448 143.424-143.448h577.176c79.056 0.024 143.4 64.344 143.4 143.448v568.296c0 79.104-64.32 143.4-143.424 143.4v0zM223.424 140.408c-48.24 0-87.48 39.216-87.48 87.48v568.272c0 48.24 39.24 87.504 87.48 87.504h577.176c48.24 0 87.48-39.264 87.48-87.504v-568.296c0-48.264-39.24-87.48-87.48-87.48l-577.176 0.024zM788.6 513.344h-553.2v-428.904h553.224v428.904h-0.024zM291.32 457.376h441.36v-316.968h-441.36v316.968zM594.368 222.728h55.92v186.504h-55.92v-186.504zM594.368 222.728z" fill="#d4237a" p-id="3647"></path></svg>