<?xml version="1.0" standalone="no"?><!DOCTYPE svg PUBLIC "-//W3C//DTD SVG 1.1//EN" "http://www.w3.org/Graphics/SVG/1.1/DTD/svg11.dtd"><svg t="1537072845878" class="icon" style="" viewBox="0 0 1024 1024" version="1.1" xmlns="http://www.w3.org/2000/svg" p-id="3439" xmlns:xlink="http://www.w3.org/1999/xlink" width="200" height="200"><defs><style type="text/css"></style></defs><path d="M511.168 32C246.112 32 32 246.096 32 511.152S246.112 992 511.168 992C776.224 992 992 777.92 992 511.152 992 244.4 776.224 32 511.168 32z m260.656 352.368L469.776 690.08c-14.656 14.64-36.608 14.64-51.264 0l-133.648-131.792c-12.816-12.832-16.464-32.992-5.472-47.616 12.816-18.304 40.288-20.128 54.928-5.488l97.024 95.2a17.712 17.712 0 0 0 25.632 0l261.776-265.456c12.832-12.816 32.944-16.464 47.584-5.472 18.304 12.8 20.144 38.432 5.488 54.912z" fill="#d4237a" p-id="3440"></path></svg>