<?xml version="1.0" standalone="no"?><!DOCTYPE svg PUBLIC "-//W3C//DTD SVG 1.1//EN" "http://www.w3.org/Graphics/SVG/1.1/DTD/svg11.dtd"><svg t="1537072910911" class="icon" style="" viewBox="0 0 1024 1024" version="1.1" xmlns="http://www.w3.org/2000/svg" p-id="3563" xmlns:xlink="http://www.w3.org/1999/xlink" width="200" height="200"><defs><style type="text/css"></style></defs><path d="M803.490817 585.197092c5.706979-23.147186 8.755408-47.341215 8.755408-72.251557 0-26.502607-3.441379-52.197826-9.875928-76.680427l104.554264-60.364833-80.58127-139.570779-105.35142 60.824297c-35.287691-34.278711-78.941933-59.987233-127.621633-73.740468L593.370239 102.414531 432.207699 102.414531l0 120.252805c-49.312102 13.423731-93.583398 39.063691-129.355113 73.485665l-103.616916-59.823504-80.58127 139.570779 102.166891 58.986439c-6.670933 24.896017-10.249435 51.057863-10.249435 78.05882 0 25.409716 3.165086 50.078559 9.096169 73.64837l-102.037954 58.911738 80.58127 139.570779 101.372805-58.527998c36.328393 36.028565 81.799004 62.841234 132.62253 76.676333l0 117.54002 161.16254 0L593.369216 802.477744c50.184983-14.178931 95.043656-41.049928 130.884956-76.933183l103.111402 59.530838 80.58127-139.570779L803.490817 585.197092zM512.943488 685.281555c-95.17771 0-172.334997-77.157287-172.334997-172.334997s77.157287-172.334997 172.334997-172.334997 172.334997 77.157287 172.334997 172.334997S608.122221 685.281555 512.943488 685.281555z" fill="#3367D6" p-id="3564"></path></svg>