<?xml version="1.0" standalone="no"?><!DOCTYPE svg PUBLIC "-//W3C//DTD SVG 1.1//EN" "http://www.w3.org/Graphics/SVG/1.1/DTD/svg11.dtd"><svg t="1537073138817" class="icon" style="" viewBox="0 0 1024 1024" version="1.1" xmlns="http://www.w3.org/2000/svg" p-id="3468" xmlns:xlink="http://www.w3.org/1999/xlink" width="200" height="200"><defs><style type="text/css"></style></defs><path d="M810.429 251.293c5.153-4.335 12.050-1.258 16.607 2.387 3.142 2.293 2.969 6.601 3.127 10.086 0.313 11.359-4.289 21.917-7.181 32.679-3.662 13.966-9.789 27.166-16.686 39.811-5.563 10.354-12.222 20.156-20.203 28.797-9.662 10.257-22.764 16.386-36.041 20.485-11.484 2.75-23.394 2.844-35.004 4.885-9.050 1.618-18.446 1.242-27.274 3.942-3.551 0.99-4.069 5.153-5.090 8.106-2.481 9.945-6.427 19.495-7.935 29.677-1.713 11.232-6.252 21.791-7.824 33.039-1.508 11.437-5.673 22.265-7.557 33.621-1.069 5.956-2.387 11.846-3.929 17.692-3.613 12.992-3.002 26.74-6.959 39.655-3.646 12.001-4.054 24.666-7.275 36.763-2.233 8.435-3.74 17.062-4.414 25.765-0.77 10.134-4.131 19.86-4.714 30.006-0.517 7.87-1.727 15.726-1.525 23.66-0.361 11.799 9.537 22.058 20.66 24.525 11.578 2.672 23.898 1.366 35.050-2.562 13.213-5.169 26.443-11.484 36.338-21.948 5.577-5.326 12.412-12.883 21.006-9.916 5.531 2.183 12.899 5.891 12.38 12.899-0.643 6.723-4.603 12.46-7.776 18.241-9.597 15.962-21.852 30.117-34.219 43.959-9.773 10.15-21.051 18.774-32.365 27.117-19.026 9.789-39.291 18.036-60.771 20.283-15.93 2.293-32.114 0.973-47.935-1.477-13.84-3.551-28.013-8.844-38.177-19.293-5.515-5.702-9.458-12.678-13.009-19.701-5.059-10.070-4.809-21.617-7.417-32.365-2.043-8.279-2.277-16.967-0.377-25.294 2.246-10.245 3.362-20.675 4.885-31.028 1.744-12.507 5.956-24.493 7.903-36.953 1.571-10.102 6.458-19.293 8.060-29.364 1.744-10.51 5.012-20.675 6.788-31.17 1.761-10.257 5.326-20.063 7.477-30.227 2.011-9.191 6.333-17.737 7.683-27.086 1.414-9.773 5.042-19.042 6.628-28.767 2.043-11.232 6.458-21.852 8.247-33.134 3.991-14.187 9.49-28.391 8.548-43.394-4.447-2.764-9.773-2.26-14.735-2.325-22.56 0.205-45.107 0.063-67.651 0.047-4.211 0.236-9.927 0.017-11.94 4.589-2.717 6.032-3.599 12.695-5.956 18.885-4.272 11.061-4.1 23.19-8.091 34.343-3.065 8.531-3.958 17.581-5.876 26.395-9.301 33.746-17.737 67.698-26.112 101.68-1.901 11.265-6.897 21.744-8.484 33.072-0.849 5.734-2.451 11.312-4.509 16.732-3.378 8.814-3.11 18.522-6.316 27.399-2.986 8.657-4.431 17.753-7.588 26.364-3.362 8.972-3.613 18.742-6.897 27.746-6.723 16.842-4.917 36.167-14.187 52.144-4.272 6.976-12.412 9.916-19.985 11.689-12.756 3.11-25.955 1.885-38.947 2.075-15.805 0.095-31.878 0.517-47.29-3.457-7.95-1.885-13.434-9.066-16.009-16.419-0.973-8.578 3.646-16.433 5.373-24.62 3.472-15.868 10.763-30.511 15.27-46.047 4.493-16.354 12.176-31.563 16.842-47.84 4.682-11.248 8.373-22.86 12.113-34.439 19.010-57.092 41.399-113.244 54.832-172.035 3.205-11.766 7.477-23.614 6.645-36.010-4.917-3.033-10.871-2.119-16.354-2.277-17.833 0.441-35.71-0.738-53.497 1.085-6.269 0.517-12.851 0.347-18.665 3.127-11.766 5.39-20.22 16.073-25.341 27.697-3.188 6.063-5.437 13.762-12.27 16.686-6.85 3.942-18.036-1.508-16.967-10.023 0.597-25.279 9.347-49.378 18.555-72.617 5.547-11.028 13.009-21.006 21.21-30.196 6.833-7.557 15.523-13.087 24.32-18.053 11.595-6.567 23.99-12.46 37.488-13.434 16.354-1.287 32.255-6.252 48.736-6.143 105.782 0.063 211.579 0 317.36 0.031 19.119-0.141 38.414 0.706 57.36-2.468 9.693-2.844 19.34-6.676 27.713-12.412 9.143-6.41 11.782-18.317 20.11-25.389z" fill="#e62430" p-id="3469"></path></svg>