<?xml version="1.0" standalone="no"?><!DOCTYPE svg PUBLIC "-//W3C//DTD SVG 1.1//EN" "http://www.w3.org/Graphics/SVG/1.1/DTD/svg11.dtd"><svg t="1537073628363" class="icon" style="" viewBox="0 0 1024 1024" version="1.1" xmlns="http://www.w3.org/2000/svg" p-id="4878" xmlns:xlink="http://www.w3.org/1999/xlink" width="200" height="200"><defs><style type="text/css"></style></defs><path d="M512 45.55806594C254.04782094 45.55806594 44.93660656 254.66927937 44.93660656 512.62145844c0 257.95217906 209.11121438 467.0622525 467.06339344 467.06225344 257.95331906 0 467.06339344-209.11007344 467.06339344-467.06225344-0.00114-257.95217906-209.11349438-467.06339344-467.06339344-467.0633925z m-392.82015469 467.0633925c0-95.44923938 34.04682281-182.94266438 90.65317313-251.01008438l553.17592594 553.17820688c-68.06513906 56.60520938-155.558565 90.65317313-251.00894438 90.65317312C295.05156219 905.44047313 119.17984531 729.57103625 119.17984531 512.62145844z m695.86516031 249.95987625L262.04240469 209.57645281C329.95702531 153.4946375 417.04450719 119.80244469 512 119.80244469c216.94957781 0 392.81901469 175.87057687 392.81901469 392.82015468 0 94.95663375-33.69219281 182.04183469-89.77400906 249.95873532z" fill="#e8453c" p-id="4879"></path></svg>