<?xml version="1.0" standalone="no"?><!DOCTYPE svg PUBLIC "-//W3C//DTD SVG 1.1//EN" "http://www.w3.org/Graphics/SVG/1.1/DTD/svg11.dtd"><svg t="1537071209354" class="icon" style="" viewBox="0 0 1024 1024" version="1.1" xmlns="http://www.w3.org/2000/svg" p-id="3432" xmlns:xlink="http://www.w3.org/1999/xlink" width="200" height="200"><defs><style type="text/css"></style></defs><path d="M874.666667 469.333333l-64 0 0-170.666667c0-47.146667-38.186667-85.333333-85.333333-85.333333l-170.666667 0 0-64c0-58.88-47.786667-106.666667-106.666667-106.666667s-106.666667 47.786667-106.666667 106.666667l0 64-170.666667 0c-47.146667 0-84.906667 38.186667-84.906667 85.333333l-0.213333 162.133333 63.786667 0c63.573333 0 115.2 51.626667 115.2 115.2s-51.626667 115.2-115.2 115.2l-63.786667 0-0.213333 162.133333c0 47.146667 38.186667 85.333333 85.333333 85.333333l162.133333 0 0-64c0-63.573333 51.626667-115.2 115.2-115.2s115.2 51.626667 115.2 115.2l0 64 162.133333 0c47.146667 0 85.333333-38.186667 85.333333-85.333333l0-170.666667 64 0c58.88 0 106.666667-47.786667 106.666667-106.666667s-47.786667-106.666667-106.666667-106.666667z" fill="#3367D6" p-id="3433"></path></svg>