<?xml version="1.0" standalone="no"?><!DOCTYPE svg PUBLIC "-//W3C//DTD SVG 1.1//EN" "http://www.w3.org/Graphics/SVG/1.1/DTD/svg11.dtd"><svg t="1537073743346" class="icon" style="" viewBox="0 0 1024 1024" version="1.1" xmlns="http://www.w3.org/2000/svg" p-id="3465" xmlns:xlink="http://www.w3.org/1999/xlink" width="200" height="200"><defs><style type="text/css"></style></defs><path d="M835.850317 877.071649c49.154513 0 75.6694-46.792723 75.6694-90.818425L911.519718 241.390769c0-44.026726-26.514887-90.818425-75.6694-90.818425L185.021435 150.572344c-47.38317 0-75.6694 28.288277-75.6694 75.6694l0 560.010457c0 44.025703 26.514887 90.818425 75.6694 90.818425L835.850317 877.070626M835.850317 922.493142 185.021435 922.493142c-72.101131 0-121.090892-63.027475-121.090892-136.238894L63.930543 226.243791c0-73.212442 48.989761-121.090892 121.090892-121.090892l650.827859 0c72.101131 0 121.090892 63.026452 121.090892 136.238894l0 544.862455C956.94121 859.465666 907.951449 922.493142 835.850317 922.493142L835.850317 922.493142 835.850317 922.493142z" fill="#d4237a" p-id="3466"></path><path d="M908.017964 814.184367c4.841262 11.568477-0.63752 24.860201-12.205996 29.701462-11.568477 4.815679-24.860201-0.63752-29.700439-12.205996-42.23594-101.259218-126.119419-195.413622-178.839131-195.413622-62.563918 0-109.357664 44.856627-109.357664 44.856627l-31.42471-32.770358c6.138814-5.877871 62.234413-57.488319 140.78135-57.488319C775.263427 590.865185 869.345176 721.447243 908.017964 814.184367M550.975175 644.575458l26.938536 36.546358c-0.069585 0.070608-10.979052 8.097422-15.959483 11.568477-30.408567 21.224394-51.938929 31.707143-68.560492 32.698726l-2.714831-45.329395c1.110287-0.070608 11.969613-1.345648 45.282323-24.601304C540.658202 652.1776 550.929126 644.623553 550.975175 644.575458M503.001557 692.550099l-44.975331 6.231935 44.597731-8.571213C502.765173 690.991604 502.883877 691.77034 503.001557 692.550099M503.001557 692.832532l-45.211714 3.989871c-0.212848-2.385327-0.355087-6.161327-0.543376-11.072173-1.464351-38.57762-5.52483-146.163941-66.10558-184.765097-4.320399-2.761903-18.085914-3.470031-29.606295 0-20.11513 6.068206-62.020542 36.098149-137.240711 157.756977-41.197284 66.647933-65.396429 170.764222-68.939115 186.063673l-44.220131-10.29446c8.831132-38.081317 33.831526-133.769656 74.534554-199.663412 87.354534-141.27663 134.714168-168.877245 162.760944-177.329754 18.486026-5.571902 47.171346-7.55507 67.098187 5.169743 80.672344 51.374064 85.323271 174.87382 87.094614 221.35955C502.765173 687.922708 502.836805 690.944532 503.001557 692.832532M577.913711 681.122839l-31.42471-32.770358L577.913711 681.122839l-26.938536-36.546358L577.913711 681.122839 577.913711 681.122839 577.913711 681.122839 577.913711 681.122839 577.913711 681.122839 577.913711 681.122839 577.913711 681.122839zM490.795561 725.461673c-6.067182 0-11.473309-1.322112-16.407692-3.920286-10.246365-5.383614-15.251356-14.70798-16.361643-22.759353l0 0c-0.094144-0.496304-0.164752-1.1328-0.23536-1.958608l19.216667-1.699712-18.981307 3.659343 33.478486-4.650927 1.889023 31.257911C492.496296 725.43916 491.646951 725.461673 490.795561 725.461673L490.795561 725.461673 490.795561 725.461673zM477.007533 695.123714l14.402011-2.761903-0.731664-12.300141c0.023536 0 0.070608 0 0.141216 0 0.708128 0 2.668783 0.212848 4.697999 1.274016 1.322112 0.708128 5.383614 3.233648 6.988158 8.899694l0.118704-0.023536c0.095167 0.472767 0.212848 1.085728 0.306992 1.817392 0.023536 0.164752 0.047072 0.329505 0.070608 0.51984l-0.023536 0c0.023536 0.094144 0.023536 0.188288 0.023536 0.283456l-5.808286 0.51984-5.690606 0.778736 0-0.283456L477.007533 695.123714 477.007533 695.123714 477.007533 695.123714zM155.001725 846.292646l-43.866067-11.781324L155.001725 846.292646 155.001725 846.292646 155.001725 846.292646 155.001725 846.292646 155.001725 846.292646 155.001725 846.292646 155.001725 846.292646 155.001725 846.292646 155.001725 846.292646zM155.001725 846.292646l-0.471744-0.212848C154.695756 846.152453 154.836973 846.222037 155.001725 846.292646L155.001725 846.292646 155.001725 846.292646zM154.531004 846.080821c-0.047072-0.023536-0.095167-0.047072-0.119727-0.047072L154.531004 846.080821 154.531004 846.080821 154.531004 846.080821zM154.411277 846.033749l-0.401136-0.188288C154.152381 845.892533 154.271084 845.962118 154.411277 846.033749L154.411277 846.033749 154.411277 846.033749zM154.010141 845.843414c-0.069585-0.047072-0.141216-0.069585-0.212848-0.094144L154.010141 845.843414 154.010141 845.843414 154.010141 845.843414zM153.79934 845.750293l-0.071631-0.047072C153.750221 845.726757 153.774781 845.726757 153.79934 845.750293L153.79934 845.750293 153.79934 845.750293zM153.727709 845.703221c-4.863774-2.290159-10.859325-5.075599-16.951067-7.955182L153.727709 845.703221 153.727709 845.703221 153.727709 845.703221zM136.775618 837.745992l-0.141216-0.070608C136.681474 837.699943 136.728546 837.723479 136.775618 837.745992L136.775618 837.745992 136.775618 837.745992zM136.635425 837.675384c-0.024559 0-0.071631-0.023536-0.094144-0.023536L136.635425 837.675384 136.635425 837.675384 136.635425 837.675384zM136.540258 837.651848l-0.566912-0.283456C136.162658 837.46356 136.351969 837.557704 136.540258 837.651848L136.540258 837.651848 136.540258 837.651848zM135.973346 837.369416c-0.071631-0.024559-0.14224-0.047072-0.188288-0.095167L135.973346 837.369416 135.973346 837.369416 135.973346 837.369416zM135.784034 837.274248l-1.299599-0.590448C134.911154 836.874135 135.334803 837.08596 135.784034 837.274248L135.784034 837.274248 135.784034 837.274248zM134.486482 836.6838l-20.517289-9.633405C119.635239 829.719178 127.071605 833.190233 134.486482 836.6838L134.486482 836.6838 134.486482 836.6838zM113.969193 827.051419c-5.689582-2.669806-8.523117-3.989871-8.523117-3.989871S108.27961 824.38366 113.969193 827.051419L113.969193 827.051419 113.969193 827.051419 113.969193 827.051419z" fill="#d4237a" p-id="3467"></path><path d="M729.768257 423.169859c25.050536 0 45.449121-20.422122 45.449121-45.518706 0-25.120121-20.398586-45.542242-45.449121-45.542242-25.073048 0-45.471634 20.422122-45.471634 45.542242C684.296623 402.747737 704.695209 423.169859 729.768257 423.169859M729.768257 468.569862c-50.099025 0-90.870614-40.796148-90.870614-90.918709 0-50.146097 40.772612-90.943268 90.870614-90.943268 50.099025 0 90.848101 40.796148 90.848101 90.943268C820.615335 427.773713 779.866259 468.569862 729.768257 468.569862L729.768257 468.569862 729.768257 468.569862z" fill="#d4237a" p-id="3468"></path></svg>