<?xml version="1.0" standalone="no"?><!DOCTYPE svg PUBLIC "-//W3C//DTD SVG 1.1//EN" "http://www.w3.org/Graphics/SVG/1.1/DTD/svg11.dtd"><svg t="1537073798705" class="icon" style="" viewBox="0 0 1024 1024" version="1.1" xmlns="http://www.w3.org/2000/svg" p-id="3591" xmlns:xlink="http://www.w3.org/1999/xlink" width="200" height="200"><defs><style type="text/css"></style></defs><path d="M795.678386 526.899338c-12.821003 0-25.560142 1.766226-37.870516 5.202489-13.671371-27.852348-33.036417-52.114938-57.105602-71.308069-34.534538-27.539216-75.650981-42.094724-118.903064-42.094724-5.857405 0-11.676947 0.284479-17.451464 0.818645-32.16763-53.707203-90.280166-87.271646-154.166195-87.271646-99.115392 0-179.75192 80.637552-179.75192 179.753967 0 53.351092 23.506367 103.038748 63.122643 136.791479-11.098779 19.291368-17.522072 41.908482-17.522072 66.095347 0 70.325695 54.086849 127.540791 120.567983 127.540791l399.080208 0c81.919754 0 148.56564-70.771857 148.56564-157.762093C944.243003 597.672218 877.597117 526.899338 795.678386 526.899338zM410.181545 397.736607c34.414811 0 66.199725 15.316847 87.547938 40.765449-19.837814 9.883091-38.186717 23.321148-54.308907 40.008202-28.893051 29.909194-48.288796 67.858504-56.236815 109.216447-16.909112 1.387603-32.837896 6.507204-47.086411 14.539134-27.630291-21.450545-44.177152-54.574966-44.177152-90.266863C295.920198 448.994014 347.177606 397.736607 410.181545 397.736607zM795.678386 776.937045 396.598178 776.937045c-30.370705 0-55.078433-27.836999-55.078433-62.051241 0-34.216289 24.707728-62.054311 55.078433-62.054311 3.866051 0 7.794523 0.479931 11.6749 1.427512 9.531074 2.326998 19.609617 0.252757 27.451212-5.647627 7.841595-5.900384 12.623505-15.007809 13.029758-24.813129 3.235694-78.284971 61.675688-139.610688 133.045155-139.610688 57.595766 0 108.433618 40.374546 126.500089 100.466156 2.90619 9.665127 10.108219 17.451464 19.519566 21.100574 9.408277 3.648087 19.976984 2.752694 28.641317-2.424212 12.144598-7.260357 25.340131-10.942213 39.217187-10.942213 45.808302 0 83.07609 41.394782 83.07609 92.276636C878.753453 735.543286 841.485665 776.937045 795.678386 776.937045z" fill="#fabb2d" p-id="3592"></path><path d="M199.69053 512c0-18.08489-14.660908-32.745798-32.745798-32.745798l-54.44603 0c-18.08489 0-32.744775 14.660908-32.744775 32.745798 0 18.083867 14.659885 32.744775 32.744775 32.744775l54.44603 0C185.029622 544.743752 199.69053 530.083867 199.69053 512z" fill="#e8453c" p-id="3593"></path><path d="M215.035006 660.83784l-38.499849 38.497802c-12.788258 12.788258-12.788258 33.521464 0 46.308699 6.39464 6.395664 14.773472 9.591449 23.154349 9.591449 8.378831 0 16.760732-3.197832 23.153326-9.590426l38.499849-38.497802c12.788258-12.788258 12.788258-33.521464 0.001023-46.307675C248.556471 648.051629 227.823264 648.051629 215.035006 660.83784z" fill="#fabb2d" p-id="3594"></path><path d="M582.175781 372.749516c8.378831 0 16.760732-3.196809 23.153326-9.589402l38.500872-38.497802c12.788258-12.788258 12.789281-33.520441 0.001023-46.308699-12.786211-12.790304-33.521464-12.789281-46.307675-0.002047l-38.500872 38.498826c-12.788258 12.787234-12.789281 33.520441-0.001023 46.308699C565.415049 369.552707 573.794903 372.749516 582.175781 372.749516z" fill="#f9bb2d" p-id="3595"></path><path d="M410.180522 301.507962C410.181545 301.507962 410.179498 301.507962 410.180522 301.507962c18.083867 0 32.744775-14.660908 32.745798-32.744775l0.001023-54.44603c0.001023-18.08489-14.659885-32.744775-32.744775-32.745798 0 0 0.001023 0 0 0-18.082844 0-32.744775 14.660908-32.745798 32.744775l-0.001023 54.447053C377.435747 286.848077 392.095631 301.507962 410.180522 301.507962z" fill="#e8453c" p-id="3596"></path><path d="M215.03296 363.160113c6.39464 6.39464 14.774495 9.591449 23.155373 9.591449 8.378831 0 16.759709-3.196809 23.153326-9.589402 12.788258-12.787234 12.789281-33.520441 0.002047-46.308699l-38.497802-38.500872c-12.787234-12.787234-33.519418-12.789281-46.308699-0.002047-12.788258 12.788258-12.789281 33.520441-0.002047 46.308699L215.03296 363.160113z" fill="#3367D6" p-id="3597"></path></svg>