<?xml version="1.0" standalone="no"?><!DOCTYPE svg PUBLIC "-//W3C//DTD SVG 1.1//EN" "http://www.w3.org/Graphics/SVG/1.1/DTD/svg11.dtd"><svg t="1537073891347" class="icon" style="" viewBox="0 0 1024 1024" version="1.1" xmlns="http://www.w3.org/2000/svg" p-id="3720" xmlns:xlink="http://www.w3.org/1999/xlink" width="200" height="200"><defs><style type="text/css"></style></defs><path d="M727.97389 502.491439c-34.903951-6.79373-17.920138-25.638937-17.920138-25.638937s34.154891-56.461943-6.762007-97.512894c-50.737568-50.842968-174.004009 6.470365-174.004009 6.470365-47.086411 14.645558-34.58468-6.684236-27.932166-42.98807 0-42.768059-14.622022-115.15981-140.031267-72.399937-125.277238 42.98807-232.869698 193.601346-232.869698 193.601346-74.803683 100.08037-64.875566 177.435155-64.875566 177.435155 18.670222 170.765245 199.652156 217.636762 340.408947 228.734518 148.081617 11.647271 347.975273-51.18066 408.559093-180.25027C873.160573 560.663326 763.015987 509.496993 727.97389 502.491439L727.97389 502.491439zM414.963966 822.041312c-147.040914 6.885827-265.874393-67.022463-265.874393-165.386748 0-98.467639 118.832456-177.435155 265.874393-184.224792 147.090033-6.79373 266.166035 53.973262 266.166035 152.240333C681.128979 723.020064 562.049906 815.343773 414.963966 822.041312L414.963966 822.041312zM414.963966 822.041312" p-id="3721" fill="#d4237a"></path><path d="M385.605312 537.287943c-147.840116 17.349133-130.773416 156.206668-130.773416 156.206668s-1.503237 43.969421 39.656185 66.364477c86.506213 46.981011 175.585017 18.533099 220.606397-39.730886C560.115857 661.832494 533.714558 520.05649 385.605312 537.287943L385.605312 537.287943zM348.310917 732.177632c-27.580149 3.243881-49.851385-12.706393-49.851385-35.868929 0-23.057135 19.775392-47.196928 47.384194-50.088792 31.715329-3.024893 52.372811 15.293311 52.372811 38.454824C398.216537 707.727777 375.840924 729.047338 348.310917 732.177632L348.310917 732.177632zM435.488419 657.733129c-9.366322 7.005554-20.849864 6.03546-25.78834-2.371-5.1503-8.188496-3.217275-21.328771 6.227842-28.228925 10.943236-8.179286 22.347984-5.820566 27.287483 2.38021C448.177416 637.907595 444.636776 650.510634 435.488419 657.733129L435.488419 657.733129zM435.488419 657.733129" p-id="3722" fill="#d4237a"></path><path d="M799.992133 442.36913c11.911284 0 22.055318-8.837272 23.746844-20.364817 0.213871-0.859577 0.319272-1.612731 0.319272-2.581802 18.058284-162.79062-133.053342-134.771473-133.053342-134.771473-13.415544 0-24.15412 10.884908-24.15412 24.454972 0 13.356193 10.738575 24.235984 24.15412 24.235984 108.558461-24.02109 84.600817 84.792175 84.600817 84.792175C775.600607 431.594739 786.521331 442.36913 799.992133 442.36913L799.992133 442.36913zM799.992133 442.36913" p-id="3723" fill="#d4237a"></path><path d="M782.390243 158.231791c-52.268434-12.264325-105.98587-1.694595-121.036657 1.196245-1.155313 0.110517-2.25639 1.210571-3.326768 1.426489-0.511653 0.109494-0.830925 0.648776-0.830925 0.648776-14.868639 4.207835-25.707498 17.980513-25.707498 34.256198 0 19.396769 15.668865 35.348066 35.256992 35.348066 0 0 18.99461-2.554172 31.902594-7.612375 12.794397-5.167696 120.981399-3.847631 174.754093 86.643336 29.297256 66.040089 12.875239 110.23873 10.837836 117.340475 0 0-6.977925 17.160845-6.977925 34.054607 0 19.506263 15.668865 31.756261 35.097356 31.756261 16.258289 0 29.887704-2.220574 33.885761-29.763884l0.214894 0C1004.179582 270.704398 875.869265 180.099844 782.390243 158.231791L782.390243 158.231791zM782.390243 158.231791" p-id="3724" fill="#d4237a"></path></svg>