<?xml version="1.0" standalone="no"?><!DOCTYPE svg PUBLIC "-//W3C//DTD SVG 1.1//EN" "http://www.w3.org/Graphics/SVG/1.1/DTD/svg11.dtd"><svg t="1537074018753" class="icon" style="" viewBox="0 0 1024 1024" version="1.1" xmlns="http://www.w3.org/2000/svg" p-id="4066" xmlns:xlink="http://www.w3.org/1999/xlink" width="200" height="200"><defs><style type="text/css"></style></defs><path d="M786.773333 629.76c-69.973333 0-129.706667 35.84-165.546666 90.453333l-209.92-121.173333c13.653333-27.306667 22.186667-56.32 22.186666-88.746667 0-20.48-3.413333-39.253333-8.533333-56.32l218.453333-124.586666c35.84 39.253333 87.04 63.146667 143.36 63.146666 107.52 0 196.266667-88.746667 196.266667-196.266666C981.333333 88.746667 894.293333 0 785.066667 0c-107.52 0-194.56 88.746667-194.56 196.266667 0 20.48 3.413333 39.253333 8.533333 56.32l-218.453333 124.586666c-35.84-39.253333-87.04-63.146667-143.36-63.146666-107.52 1.706667-194.56 88.746667-194.56 197.973333 0 109.226667 87.04 197.973333 196.266666 197.973333 44.373333 0 85.333333-15.36 117.76-40.96v1.706667l237.226667 136.533333c0 6.826667-1.706667 13.653333-1.706667 20.48-1.706667 107.52 85.333333 196.266667 192.853334 196.266667 107.52 0 196.266667-88.746667 196.266666-196.266667 0-109.226667-87.04-197.973333-194.56-197.973333z m0-551.253333c64.853333 0 117.76 52.906667 117.76 117.76s-52.906667 117.76-117.76 117.76c-64.853333 0-117.76-52.906667-117.76-117.76s51.2-117.76 117.76-117.76zM238.933333 629.76c-64.853333 0-117.76-52.906667-117.76-117.76 0-64.853333 52.906667-117.76 117.76-117.76s117.76 52.906667 117.76 117.76c-1.706667 64.853333-52.906667 117.76-117.76 117.76z m547.84 315.733333c-64.853333 0-117.76-52.906667-117.76-117.76 0-64.853333 52.906667-117.76 117.76-117.76 64.853333 0 117.76 52.906667 117.76 117.76-1.706667 64.853333-54.613333 117.76-117.76 117.76z" fill="#fabb2d" p-id="4067"></path></svg>