<?xml version="1.0" standalone="no"?><!DOCTYPE svg PUBLIC "-//W3C//DTD SVG 1.1//EN" "http://www.w3.org/Graphics/SVG/1.1/DTD/svg11.dtd"><svg t="1537083508478" class="icon" style="" viewBox="0 0 1024 1024" version="1.1" xmlns="http://www.w3.org/2000/svg" p-id="15846" xmlns:xlink="http://www.w3.org/1999/xlink" width="200" height="200"><defs><style type="text/css"></style></defs><path d="M937.632054 1023.99936h-851.199468A86.047946 86.047946 0 0 1 0.00064 937.631414v-851.199468C0.00064 38.399976 38.400616 0 86.400586 0h854.399466C985.600024 0 1024 38.399976 1024 86.399946v851.199468c0 47.99997-38.399976 86.399946-86.367946 86.399946zM512.00032 169.599894h-127.99992c-118.399926 0-214.399866 95.99994-214.399866 214.399866v255.99984a214.399866 214.399866 0 0 0 214.399866 214.367866h255.99984A214.399866 214.399866 0 0 0 854.368106 639.9996v-169.599894c0-25.599984-19.199988-44.799972-44.799972-44.799972H768.00016c-22.367986 0-41.631974-19.199988-41.631974-41.631974A214.399866 214.399866 0 0 0 512.00032 169.535894z m131.167918 511.99968H384.0004c-22.399986 0-41.599974-19.199988-41.599974-41.599974s19.199988-41.631974 41.599974-41.631974h259.167838c22.431986 0 41.695974 19.199988 41.695974 41.631974s-19.199988 41.631974-41.599974 41.631974z m-108.799932-339.199788c22.495986 0 41.631974 19.199988 41.631974 41.599974s-19.199988 41.599974-41.599974 41.599974h-153.599904c-22.399986 0-41.631974-19.199988-41.631974-41.599974s19.199988-41.599974 41.599974-41.599974h153.599904z" fill="#fc5830" p-id="15847" data-spm-anchor-id="a313x.7781069.0.i18" class="selected"></path></svg>