<?xml version="1.0" standalone="no"?><!DOCTYPE svg PUBLIC "-//W3C//DTD SVG 1.1//EN" "http://www.w3.org/Graphics/SVG/1.1/DTD/svg11.dtd"><svg t="1537083579171" class="icon" style="" viewBox="0 0 1024 1024" version="1.1" xmlns="http://www.w3.org/2000/svg" p-id="16598" xmlns:xlink="http://www.w3.org/1999/xlink" width="200" height="200"><defs><style type="text/css"></style></defs><path d="M537.6 122.026667c113.92 52.906667 230.4 107.946667 343.893333 160.853333 6.4 2.986667 14.506667 5.12 14.506667 13.653333s-8.106667 10.24-14.506667 13.226667C768 362.666667 652.8 416.853333 538.453333 469.333333a55.466667 55.466667 0 0 1-52.906666 0C370.773333 416.426667 256 362.666667 141.653333 309.333333 135.68 306.773333 128 304.64 128 296.106667c0-7.68 7.68-9.813333 13.226667-12.373334C256 229.973333 372.906667 174.933333 488.106667 121.6c12.373333-5.546667 36.693333-5.12 49.493333 0.426667M512 902.4c-8.533333 0-14.506667-3.413333-26.453333-7.68-114.773333-52.906667-229.546667-106.666667-343.466667-160-5.973333-2.986667-14.08-4.693333-14.08-13.653333 0-8.533333 8.106667-10.24 14.506667-13.226667 18.773333-8.96 37.973333-17.92 56.746666-26.88 19.2-8.533333 37.973333-8.533333 56.746667 0.426667 76.373333 35.413333 152.32 70.826667 228.266667 106.24 18.773333 8.96 37.546667 8.533333 56.32 0 75.946667-35.84 151.893333-71.253333 227.413333-106.666667 18.773333-8.533333 37.12-8.96 55.04-0.426667 20.48 8.96 40.533333 18.773333 60.586667 28.16 2.986667 1.28 5.973333 2.986667 8.533333 5.12 5.546667 4.266667 5.546667 11.52 0 14.933334-3.413333 2.56-7.253333 4.693333-11.093333 6.4-113.066667 54.186667-226.986667 106.24-340.906667 158.72-8.533333 4.266667-20.053333 8.533333-28.16 8.533333m0-212.48c-4.266667 0-19.2-4.266667-27.306667-7.253333-114.346667-53.76-228.693333-106.666667-342.186666-160.426667-5.973333-2.56-14.506667-4.693333-14.506667-13.226667 0-8.96 8.533333-10.666667 14.933333-13.653333 19.2-9.386667 38.4-18.346667 57.6-27.306667 18.346667-8.106667 36.693333-8.106667 55.466667 1.28 75.946667 34.986667 152.746667 70.826667 229.546667 106.666667 17.493333 8.106667 35.413333 8.106667 53.333333 0 76.8-36.266667 153.6-72.106667 230.826667-107.946667 17.493333-8.106667 35.413333-8.106667 53.333333 0 20.053333 9.386667 40.533333 18.773333 60.586667 28.16 2.56 1.28 5.546667 2.56 8.106666 4.693334 5.973333 4.693333 5.973333 11.093333-0.426666 16.213333-2.133333 1.706667-5.12 2.986667-7.68 4.266667-115.626667 54.613333-230.4 107.946667-345.6 161.28-8.106667 3.84-22.613333 7.253333-26.026667 7.253333z" fill="#2c2c2c" p-id="16599"></path></svg>