<?xml version="1.0" standalone="no"?><!DOCTYPE svg PUBLIC "-//W3C//DTD SVG 1.1//EN" "http://www.w3.org/Graphics/SVG/1.1/DTD/svg11.dtd"><svg t="1537084832237" class="icon" style="" viewBox="0 0 1024 1024" version="1.1" xmlns="http://www.w3.org/2000/svg" p-id="31393" xmlns:xlink="http://www.w3.org/1999/xlink" width="200" height="200"><defs><style type="text/css"></style></defs><path d="M544 480l64 0 0 128-64 0 0-128Z" p-id="31394"></path><path d="M768 480l64 0 0 128-64 0 0-128Z" p-id="31395"></path><path d="M928.512 0 95.488 0C42.752 0 0 42.752 0 95.488l0 832.992C0 981.248 42.752 1024 95.488 1024l832.992 0C981.248 1024 1024 981.248 1024 928.512L1024 95.488C1024 42.752 981.248 0 928.512 0zM352 672 160 672l0-256 128 0L288 288l64 0L352 672zM448 672l-64 0 0-256 64 0L448 672zM448 384l-64 0 0-64 64 0L448 384zM672 768l-192 0 0-64 128 0 0-32-128 0 0-256 192 0L672 768zM896 768l-192 0 0-64 128 0 0-32-128 0 0-256 192 0L896 768z" p-id="31396"></path><path d="M224 480l64 0 0 128-64 0 0-128Z" p-id="31397"></path></svg>