<?xml version="1.0" standalone="no"?><!DOCTYPE svg PUBLIC "-//W3C//DTD SVG 1.1//EN" "http://www.w3.org/Graphics/SVG/1.1/DTD/svg11.dtd"><svg t="1537086493087" class="icon" style="" viewBox="0 0 1024 1024" version="1.1" xmlns="http://www.w3.org/2000/svg" p-id="50874" xmlns:xlink="http://www.w3.org/1999/xlink" width="200" height="200"><defs><style type="text/css"></style></defs><path d="M701.44 519.168l-382.976 0 0-191.488 382.976 0 0 191.488zM877.568 69.632q34.816 0 59.392 24.064t24.576 59.904l0 731.136q0 34.816-24.576 59.392t-59.392 24.576l-732.16 0q-34.816 0-58.88-24.576t-24.064-59.392l0-731.136q0-35.84 24.064-59.904t58.88-24.064l732.16 0zM187.392 197.632l648.192 0 0-63.488-648.192 0 0 63.488zM253.952 263.168l0 318.464 512 0 0-318.464-512 0zM857.088 774.144l-176.128 0 62.464-111.616-70.656-53.248q-5.12 12.288-9.216 23.552t-9.728 23.552-11.776 23.552q-17.408 29.696-31.744 57.856t-19.456 36.352l-158.72 0q-4.096-8.192-18.432-36.352t-31.744-57.856q-7.168-11.264-12.288-23.552t-9.216-23.552-9.216-23.552l-70.656 53.248 62.464 111.616-176.128 0 0 65.536 690.176 0 0-65.536z" fill="#0C7E23" p-id="50875"></path></svg>