<?xml version="1.0" standalone="no"?><!DOCTYPE svg PUBLIC "-//W3C//DTD SVG 1.1//EN" "http://www.w3.org/Graphics/SVG/1.1/DTD/svg11.dtd"><svg t="1537085493015" class="icon" style="" viewBox="0 0 1024 1024" version="1.1" xmlns="http://www.w3.org/2000/svg" p-id="40190" xmlns:xlink="http://www.w3.org/1999/xlink" width="200" height="200"><defs><style type="text/css"></style></defs><path d="M724.708363 485.656912a205.16075 205.16075 0 0 0-39.656949 2.398606c3.230122-28.239586 14.74343-62.907435 56.44719-61.564216 45.541529 1.631052 51.969793 44.933882 51.969792 74.196873-19.220828-8.571018-43.622644-14.103802-69.303717-14.999282z m195.214532-306.989562c-7.675539-41.064131-32.141318-61.180439-53.888677-69.111829-23.762188-8.571018-71.894211-17.493832-132.818799-24.657668-48.835614-5.756654-105.826488-5.244951-140.494338-4.189565-3.837769-28.399493-23.666244-54.368398-46.149176-63.355174-59.005703-23.922095-150.792352-18.165441-174.362652-11.54529-18.645162 5.244951-39.401098 16.08665-50.882424 32.525095-7.771483 11.001605-12.888509 25.16937-12.888509 44.901901 0 11.257457 0 37.610139 0.639628 60.98855l0.639629 44.741994c0 20.883861-17.301943 37.897972-38.473638 37.897972H174.947912c-20.500084 0-36.554753 3.485974-48.739671 8.922813a66.009632 66.009632 0 0 0-26.960329 21.459527c-12.824546 16.758259-15.447021 38.601563-15.447021 60.380904 0 0 0 17.269962 4.477397 51.937811 3.198141 26.320701 32.077355 212.388549 59.645331 268.899702 10.905661 21.843304 17.941571 30.83008 38.505619 40.392522 46.820785 19.924419 153.350865 41.735741 202.730163 48.132023 50.050908 6.396282 81.520616 19.220828 100.133797-19.220828 0-0.67161 3.230122-10.234051 8.347149-24.401816 16.022687-49.379298 17.941571-92.362314 17.941571-123.832023 0-3.16616 4.477398-3.16616 4.477398 0 0 21.843304-4.477398 100.773425 54.528305 121.913138 23.058597 8.315167 71.894211 15.383059 121.27351 21.203675 44.294254 5.117026 77.043219 22.418969 77.043218 137.296197 0 69.303717-14.839375 78.89814-91.115039 78.89814-62.299788 0-86.061976 1.311238-86.061977-47.364469 0-39.816856 39.145247-35.915124 68.696071-35.915124 12.824546 0 3.16616-9.690367 3.16616-34.699831 0-24.401816 14.74343-38.473637 0.671609-39.145247-101.445035-3.16616-160.418757 0-160.418756 125.750907 0 114.269581 43.654626 136.080903 186.739457 136.080903 112.286733 0 152.071608-3.933714 198.188803-147.658173 8.986776-28.815251 31.469708-115.420912 44.997845-260.45661 8.315167-92.394296-8.411111-370.248793-21.139712-440.192138z m-751.946931 17.717701h96.839712c5.532784 0 10.074144-4.477398 10.074144-10.266033 0 0-0.89548-82.767891-0.895479-105.826488 0-19.060921 3.837769-35.307478 10.905661-49.283354l3.198141-6.396282c-0.383777 0-0.67161 0-1.023405 0.671609L101.038871 212.567645c-0.415758 0.255851-0.67161 0.639628-0.671609 1.023405l9.818293-4.829193c16.08665-7.419687 35.915124-11.545289 59.613349-11.545289z" fill="#2DBE60" p-id="40191"></path></svg>