<?xml version="1.0" standalone="no"?><!DOCTYPE svg PUBLIC "-//W3C//DTD SVG 1.1//EN" "http://www.w3.org/Graphics/SVG/1.1/DTD/svg11.dtd"><svg t="1537083879085" class="icon" style="" viewBox="0 0 1024 1024" version="1.1" xmlns="http://www.w3.org/2000/svg" p-id="27201" xmlns:xlink="http://www.w3.org/1999/xlink" width="200" height="200"><defs><style type="text/css"></style></defs><path d="M910.7 960c27.2 0 49.4-22.2 49.4-49.4V113.3c0-27.2-22.2-49.4-49.4-49.4H113.3C86.1 64 64 86.1 64 113.3v797c0 27.2 22.2 49.4 49.4 49.4h797.4l-0.1 0.3z" fill="#4469b0" p-id="27202" data-spm-anchor-id="a313x.7781069.0.i26" class="selected"></path><path d="M682.4 960V612.9h116.5l17.5-135.3h-134v-86.3c0-39.3 10.7-65.8 67.1-65.8H821V204.6c-12.4-1.7-55.1-5.4-104.4-5.4-103.4 0-173.9 63.1-173.9 178.6v99.7H425.9v135.3h116.8V960h139.7z" fill="#FFFFFF" p-id="27203"></path></svg>