<?xml version="1.0" standalone="no"?><!DOCTYPE svg PUBLIC "-//W3C//DTD SVG 1.1//EN" "http://www.w3.org/Graphics/SVG/1.1/DTD/svg11.dtd"><svg t="1537085372345" class="icon" style="" viewBox="0 0 1024 1024" version="1.1" xmlns="http://www.w3.org/2000/svg" p-id="39278" data-spm-anchor-id="a313x.7781069.0.i51" xmlns:xlink="http://www.w3.org/1999/xlink" width="200" height="200"><defs><style type="text/css"></style></defs><path d="M0 0" p-id="39279"></path><path d="M750.933333 1024H580.266667c-9.386667 0-17.066667-7.68-17.066667-17.066667V512h-204.8v494.933333c0 9.386667-7.645867 17.066667-17.066667 17.066667H170.666667c-9.4208 0-17.066667-7.68-17.066667-17.066667V512H102.4a17.066667 17.066667 0 0 1-17.066667-17.066667v-136.533333A17.066667 17.066667 0 0 1 102.4 341.333333h51.2v-81.578666C153.6 94.685867 236.373333 0 380.7232 0H512a17.066667 17.066667 0 0 1 17.066667 17.066667v136.533333A17.066667 17.066667 0 0 1 512 170.666667h-44.305067c-87.176533 0-109.294933 8.738133-109.294933 89.088V341.333333h204.8v-81.578666C563.2 148.241067 584.0896 0 764.7232 0H921.6c9.386667 0 17.066667 7.645867 17.066667 17.066667v136.533333c0 9.4208-7.68 17.066667-17.066667 17.066667h-69.905067c-81.373867 0-83.694933 2.491733-83.694933 89.088V341.333333H853.333333c9.386667 0 17.066667 7.645867 17.066667 17.066667v136.533333c0 9.4208-7.68 17.066667-17.066667 17.066667h-85.333333v494.933333c0 9.386667-7.68 17.066667-17.066667 17.066667z m-153.6-34.133333h136.533334V494.933333c0-9.4208 7.68-17.066667 17.066666-17.066666h85.333334v-102.4H750.933333c-9.386667 0-17.066667-7.645867-17.066666-17.066667v-98.645333C733.866667 161.4848 745.437867 136.533333 851.694933 136.533333H904.533333V34.133333H764.7232C647.3728 34.133333 597.333333 101.614933 597.333333 259.754667v98.645333c0 9.4208-7.68 17.066667-17.066666 17.066667H341.333333a17.066667 17.066667 0 0 1-17.066666-17.066667v-98.645333C324.266667 154.350933 368.503467 136.533333 467.694933 136.533333H494.933333V34.133333H380.7232C212.7872 34.133333 187.733333 175.5136 187.733333 259.754667v98.645333A17.066667 17.066667 0 0 1 170.666667 375.466667h-51.2v102.4H170.666667a17.066667 17.066667 0 0 1 17.066666 17.066666V989.866667h136.533334V494.933333A17.066667 17.066667 0 0 1 341.333333 477.866667h238.933334c9.386667 0 17.066667 7.645867 17.066666 17.066666V989.866667z" p-id="39280" data-spm-anchor-id="a313x.7781069.0.i52" class="selected" fill="#88aad7"></path></svg>