<?xml version="1.0" standalone="no"?><!DOCTYPE svg PUBLIC "-//W3C//DTD SVG 1.1//EN" "http://www.w3.org/Graphics/SVG/1.1/DTD/svg11.dtd"><svg t="1537085546173" class="icon" style="" viewBox="0 0 1024 1024" version="1.1" xmlns="http://www.w3.org/2000/svg" p-id="41250" xmlns:xlink="http://www.w3.org/1999/xlink" width="200" height="200"><defs><style type="text/css"></style></defs><path d="M802.688 437.728l-240.896 231.2a70.304 70.304 0 0 1-97.344 0l-240.896-231.2a70.144 70.144 0 0 1-2.08-99.232 70.08 70.08 0 0 1 99.2-2.144l192.48 184.416 192.736-184.416a70.112 70.112 0 0 1 99.232 2.08c26.912 27.52 26.24 72.32-1.92 99.232l-0.48 0.032z m216.864-321.984a92.288 92.288 0 0 0-87.072-61.28H92.96A93.44 93.44 0 0 0 6.048 114.4 93.792 93.792 0 0 0 0 147.424v309.12l3.584 61.472c14.848 139.808 87.328 262.048 199.776 347.264 1.92 1.536 4 2.976 6.112 4.48l1.28 0.992a507.84 507.84 0 0 0 200.288 88.416c33.536 6.752 67.872 10.24 101.92 10.24 31.52 0 63.2-2.848 94.24-8.704 3.744-1.248 7.52-1.92 11.264-2.56 0.992 0 2.08-0.64 3.168-1.248a512.192 512.192 0 0 0 192.352-86.4l1.248-1.312 5.76-4.48c112.096-85.12 184.48-207.456 199.936-347.648l3.104-61.472V146.976a89.6 89.6 0 0 0-5.152-31.648l0.736 0.416z" fill="#eb4258" p-id="41251"></path></svg>