<?xml version="1.0" standalone="no"?><!DOCTYPE svg PUBLIC "-//W3C//DTD SVG 1.1//EN" "http://www.w3.org/Graphics/SVG/1.1/DTD/svg11.dtd"><svg t="1537084700570" class="icon" style="" viewBox="0 0 1024 1024" version="1.1" xmlns="http://www.w3.org/2000/svg" p-id="28647" xmlns:xlink="http://www.w3.org/1999/xlink" width="200" height="200"><defs><style type="text/css"></style></defs><path d="M512 512m-512 0a512 512 0 1 0 1024 0 512 512 0 1 0-1024 0Z" fill="#CF4C3C" p-id="28648"></path><path d="M745.94 431.018l-73.042 87.878-137.526-143.036h-190.016l-76.906 83.274v179.824L637.7 1008.434c167.188-42.204 301.632-166.636 357.832-327.774L745.94 431.018z" fill="#AD3228" p-id="28649"></path><path d="M424.578 550.688h91.578c-16.074 45.442-59.612 78.024-110.574 77.652-61.84-0.456-112.982-49.928-115.378-111.726-2.572-66.24 50.57-120.956 116.246-120.956 30.034 0 57.44 11.446 78.1 30.196 4.896 4.44 12.34 4.472 17.156-0.062l33.636-31.65c5.262-4.952 5.278-13.316 0.032-18.28-32.764-31.048-76.718-50.396-125.19-51.338-103.38-2.024-190.522 82.74-191.24 186.14-0.73 104.18 83.5 188.858 187.506 188.858 100.028 0 181.738-78.318 187.21-176.97 0.144-1.238 0.242-43.04 0.242-43.04H424.58a12.564 12.564 0 0 0-12.564 12.564v46.048a12.562 12.562 0 0 0 12.562 12.564z" fill="#FFFFFF" p-id="28650"></path><path d="M749.062 483.694V438.7a11.004 11.004 0 0 0-11.008-11.008h-37.868a11.008 11.008 0 0 0-11.012 11.008v44.994h-44.984a11.016 11.016 0 0 0-11.02 11.012v37.864a11.02 11.02 0 0 0 11.02 11.012h44.984v44.988a11.01 11.01 0 0 0 11.012 11.012h37.868a11.008 11.008 0 0 0 11.008-11.012v-44.988h44.994a11.016 11.016 0 0 0 11.012-11.012v-37.864a11.014 11.014 0 0 0-11.012-11.012h-44.994z" fill="#D1D1D1" p-id="28651"></path></svg>