<?xml version="1.0" standalone="no"?><!DOCTYPE svg PUBLIC "-//W3C//DTD SVG 1.1//EN" "http://www.w3.org/Graphics/SVG/1.1/DTD/svg11.dtd"><svg t="1537085659307" class="icon" style="" viewBox="0 0 1024 1024" version="1.1" xmlns="http://www.w3.org/2000/svg" p-id="42028" xmlns:xlink="http://www.w3.org/1999/xlink" width="200" height="200"><defs><style type="text/css"></style></defs><path d="M512 1024C229.23264 1024 0 794.76736 0 512S229.23264 0 512 0s512 229.23264 512 512-229.23264 512-512 512z m0-61.44c248.832 0 450.56-201.728 450.56-450.56S760.832 61.44 512 61.44 61.44 263.168 61.44 512s201.728 450.56 450.56 450.56z m181.00224-128.34816H330.99776v-35.88096c8.27392-0.6144 20.48-1.51552 36.5568-2.74432 16.09728-1.2288 27.2384-3.072 33.36192-5.5296 11.34592-4.58752 19.08736-10.6496 23.22432-18.16576 4.13696-7.51616 6.20544-17.1008 6.20544-28.75392V280.3712c0-10.42432-1.98656-19.61984-5.98016-27.58656-3.97312-7.9872-11.79648-14.41792-23.4496-19.33312-7.3728-3.072-18.24768-6.20544-32.6656-9.4208a376.66816 376.66816 0 0 0-37.2736-6.67648V181.47328h362.02496v35.88096c-9.19552 0.9216-20.6848 2.23232-34.48832 3.91168-13.80352 1.69984-25.45664 4.07552-34.95936 7.12704-11.96032 3.9936-19.94752 10.19904-23.92064 18.6368-3.9936 8.43776-5.98016 18.0224-5.98016 28.75392v462.29504c0 11.0592 2.048 20.48 6.20544 28.28288 4.13696 7.82336 12.04224 14.19264 23.69536 19.10784 6.43072 2.74432 17.1008 5.4272 31.9488 8.04864 14.88896 2.60096 27.38176 4.1984 37.49888 4.8128v35.88096z" fill="#333333" p-id="42029"></path></svg>