<?xml version="1.0" standalone="no"?><!DOCTYPE svg PUBLIC "-//W3C//DTD SVG 1.1//EN" "http://www.w3.org/Graphics/SVG/1.1/DTD/svg11.dtd"><svg t="1537085682998" class="icon" style="" viewBox="0 0 1024 1024" version="1.1" xmlns="http://www.w3.org/2000/svg" p-id="42353" xmlns:xlink="http://www.w3.org/1999/xlink" width="200" height="200"><defs><style type="text/css"></style></defs><path d="M157.615686 0h708.768628c86.337255 0 157.615686 70.27451 157.615686 156.611765v710.77647c0 86.337255-71.278431 156.611765-157.615686 156.611765h-708.768628c-86.337255 0-157.615686-70.27451-157.615686-156.611765v-710.77647c0-86.337255 71.278431-156.611765 157.615686-156.611765z" fill="#54B332" p-id="42354"></path><path d="M512 160.627451c207.811765 0 375.466667 134.52549 375.466667 301.176471 0 58.227451-20.078431 112.439216-56.219608 158.619607-2.007843 3.011765-4.015686 5.019608-7.027451 9.035295-12.047059 14.054902-26.101961 28.109804-41.160784 41.160784-103.403922 96.376471-275.07451 210.823529-297.160785 192.752941-20.078431-15.058824 32.12549-90.352941-27.105882-102.4-4.015686 0-8.031373-1.003922-12.047059-2.007843-175.686275-25.098039-309.207843-148.580392-309.207843-296.156863-1.003922-167.654902 166.65098-302.180392 374.462745-302.180392z" fill="#FFFFFF" p-id="42355"></path><path d="M294.14902 557.176471h75.294117c11.043137 0 20.078431-9.035294 20.078432-20.078432v-2.007843c0-11.043137-9.035294-20.078431-20.078432-20.078431h-54.211764v-124.486275c0-11.043137-9.035294-20.078431-20.078432-20.078431h-2.007843c-11.043137 0-20.078431 9.035294-20.078431 20.078431v145.568628c1.003922 12.047059 10.039216 21.082353 21.082353 21.082353z m469.835294-91.356863v-1.003922c0-11.043137-9.035294-20.078431-20.078432-20.078431h-54.211764v-31.121569h54.211764c11.043137 0 20.078431-9.035294 20.078432-20.078431v-2.007843c0-11.043137-9.035294-20.078431-20.078432-20.078432h-75.294117c-11.043137 0-20.078431 9.035294-20.078432 20.078432v145.568627c0 11.043137 9.035294 20.078431 20.078432 20.078432h75.294117c11.043137 0 20.078431-9.035294 20.078432-20.078432v-2.007843c0-11.043137-9.035294-20.078431-20.078432-20.078431h-54.211764v-31.121569h54.211764c11.043137 2.007843 20.078431-7.027451 20.078432-18.070588z m-146.572549 85.333333c3.011765-4.015686 6.023529-8.031373 6.023529-14.054902v-145.568627c0-11.043137-9.035294-20.078431-20.078431-20.078432h-2.007843c-11.043137 0-20.078431 9.035294-20.078432 20.078432v85.333333l-71.278431-95.372549c-3.011765-6.023529-10.039216-10.039216-17.066667-10.039216h-2.007843c-11.043137 0-20.078431 9.035294-20.078431 20.078432v145.568627c0 11.043137 9.035294 20.078431 20.078431 20.078432h2.007843c11.043137 0 20.078431-9.035294 20.078432-20.078432v-87.341176l71.278431 97.380392c0 1.003922 1.003922 1.003922 1.003922 2.007843 2.007843 3.011765 5.019608 4.015686 8.031372 6.023529 2.007843 1.003922 5.019608 1.003922 7.027451 1.003922h2.007843c3.011765 0 6.023529-1.003922 9.035294-2.007843 4.015686 0 5.019608-1.003922 6.02353-3.011765z m-192.752941 6.02353h2.007843c11.043137 0 20.078431-9.035294 20.078431-20.078432v-145.568627c0-11.043137-9.035294-20.078431-20.078431-20.078432h-2.007843c-11.043137 0-20.078431 9.035294-20.078432 20.078432v145.568627c1.003922 11.043137 9.035294 20.078431 20.078432 20.078432z" fill="#54B332" p-id="42356"></path></svg>