<?xml version="1.0" standalone="no"?><!DOCTYPE svg PUBLIC "-//W3C//DTD SVG 1.1//EN" "http://www.w3.org/Graphics/SVG/1.1/DTD/svg11.dtd"><svg t="1537084769360" class="icon" style="" viewBox="0 0 1024 1024" version="1.1" xmlns="http://www.w3.org/2000/svg" p-id="29996" xmlns:xlink="http://www.w3.org/1999/xlink" width="200" height="200"><defs><style type="text/css"></style></defs><path d="M827.5 827.7H694.7v-208c0-49.6-1-113.4-69.1-113.4-69.2 0-79.8 54-79.8 109.8v211.6H413.1V400h127.5v58.3h1.7c17.8-33.6 61.2-69.1 125.9-69.1 134.5 0 159.4 88.5 159.4 203.7V827.7zM263.2 341.4c-42.7 0-77.1-34.6-77.1-77.1 0-42.5 34.4-77 77.1-77 42.6 0 77.1 34.6 77.1 77-0.1 42.5-34.6 77.1-77.1 77.1z m66.5 486.3H196.6V400h133.1v427.7zM893.8 63.8H129.9c-36.5 0-66.1 28.9-66.1 64.6v767.2c0 35.7 29.6 64.6 66.1 64.6h763.9c36.5 0 66.4-28.9 66.4-64.6V128.4c0-35.7-29.9-64.6-66.4-64.6z" fill="#0077B5" p-id="29997"></path></svg>