<?xml version="1.0" standalone="no"?><!DOCTYPE svg PUBLIC "-//W3C//DTD SVG 1.1//EN" "http://www.w3.org/Graphics/SVG/1.1/DTD/svg11.dtd"><svg t="1537085145601" class="icon" style="" viewBox="0 0 1024 1024" version="1.1" xmlns="http://www.w3.org/2000/svg" p-id="35776" xmlns:xlink="http://www.w3.org/1999/xlink" width="200" height="200"><defs><style type="text/css"></style></defs><path d="M771.84 627.04a280.352 280.352 0 0 0-144.256 145.024l182.176 37.664-37.792-182.688h-0.128zM105.6 354.848L0 249.6A480.448 480.448 0 0 1 248.448 0h0.256l105.344 105.088a478.944 478.944 0 0 1 190.432-39.296C809.28 65.792 1024 280.288 1024 544.896S809.248 1024 544.48 1024c-264.96 0-479.616-214.368-479.616-479.104 0-67.872 15.136-131.456 40.608-189.92l390.112 388.864a480.768 480.768 0 0 1 248.448-249.6L353.92 105.12a481.472 481.472 0 0 0-248.448 249.6l0.128 0.128z" fill="#00B0EA" p-id="35777"></path></svg>