<?xml version="1.0" standalone="no"?><!DOCTYPE svg PUBLIC "-//W3C//DTD SVG 1.1//EN" "http://www.w3.org/Graphics/SVG/1.1/DTD/svg11.dtd"><svg t="1537085261253" class="icon" style="" viewBox="0 0 1024 1024" version="1.1" xmlns="http://www.w3.org/2000/svg" p-id="36496" xmlns:xlink="http://www.w3.org/1999/xlink" width="200" height="200"><defs><style type="text/css"></style></defs><path d="M145.170468 454.336501m-131.90498 0a131.90498 131.90498 0 1 0 263.809959 0 131.90498 131.90498 0 1 0-263.809959 0Z" fill="#222A30" p-id="36497"></path><path d="M143.383635 620.721406C63.526948 621.683348 0 688.326263 0 768.188122v37.14078a15.569494 15.569494 0 0 0 15.569494 15.569494H274.774027a15.569494 15.569494 0 0 0 15.569494-15.569494V765.88153c0-80.764325-65.965419-146.134995-146.959886-145.160124z" fill="#222A30" p-id="36498"></path><path d="M479.264241 424.211172m-142.765613 0a142.765613 142.765613 0 1 0 285.531226 0 142.765613 142.765613 0 1 0-285.531226 0Z" fill="#222A30" p-id="36499"></path><path d="M477.330013 604.267546c-86.419612 1.039518-155.167422 73.159296-155.167422 159.586666v41.47469a15.569494 15.569494 0 0 0 15.569494 15.569494h283.066897a15.569494 15.569494 0 0 0 15.569494-15.569494v-43.97005c-0.002586-87.409999-71.387978-158.146339-159.038463-157.091306zM844.083263 530.079076c90.290652 0 163.48615-73.20067 163.48615-163.501665 0-90.280309-73.198084-163.480978-163.48615-163.480979-90.295824 0-163.48615 73.20067-163.48615 163.480979 0 90.300996 73.192912 163.501665 163.48615 163.501665zM844.080677 572.792396c-99.367039 0-179.919323 80.552284-179.919323 179.919323v52.619769a15.569494 15.569494 0 0 0 15.569494 15.569494h328.699658a15.569494 15.569494 0 0 0 15.569494-15.569494v-52.617183c0.002586-99.369625-80.552284-179.921909-179.919323-179.921909z" fill="#222A30" p-id="36500"></path></svg>