<?xml version="1.0" standalone="no"?><!DOCTYPE svg PUBLIC "-//W3C//DTD SVG 1.1//EN" "http://www.w3.org/Graphics/SVG/1.1/DTD/svg11.dtd"><svg t="1537085445690" class="icon" style="" viewBox="0 0 1024 1024" version="1.1" xmlns="http://www.w3.org/2000/svg" p-id="39490" xmlns:xlink="http://www.w3.org/1999/xlink" width="200" height="200"><defs><style type="text/css"></style></defs><path d="M0 0" p-id="39491"></path><path d="M552.311467 647.236267l127.1808-83.273956a88.086756 88.086756 0 0 0 44.4416 12.174222c47.047111 0 85.959111-38.263467 85.959111-85.333333 0-47.035733-38.070044-85.333333-85.071645-85.333333-46.4896 0-88.462222 37.444267-89.2928 83.7632l-89.645511 57.002666V392.328533c0-0.443733 5.882311-0.6144 6.599111-1.092266l127.112534-83.319467a88.348444 88.348444 0 0 0 44.4416 12.219733c47.069867 0 85.936356-38.229333 85.936355-85.333333 0-47.069867-38.024533-85.333333-85.060266-85.333333-46.4896 0-88.4736 37.444267-89.2928 83.7632l-89.634134 57.002666V0h-68.266666v162.235733l-89.770667-57.002666c-0.853333-46.318933-40.789333-83.7632-87.313067-83.7632-47.035733 0-86.391467 38.263467-86.391466 85.333333 0 47.104 37.717333 85.333333 84.7872 85.333333 15.940267 0 30.344533-4.676267 43.1104-12.219733l129.092266 83.319467c0.7168 0.512 6.417067 0.682667 6.417067 1.092266v153.9072l-89.770667-57.002666c-0.853333-46.318933-40.789333-83.7632-87.313066-83.7632-47.035733 0-86.391467 38.263467-86.391467 85.333333 0 47.069867 37.717333 85.333333 84.753067 85.333333 15.9744 0 30.4128-4.676267 43.144533-12.219733l129.092267 83.319467c0.7168 0.523378 6.417067 0.682667 6.417066 1.103644v153.895822l-89.770666-57.002666c-0.853333-46.273422-40.789333-83.7632-87.313067-83.7632-47.035733 0-86.391467 38.2976-86.391467 85.333333 0 47.069867 37.6832 85.333333 84.753067 85.333333 15.9744 0 30.4128-4.664889 43.144533-12.174222l129.092267 83.273956c0.7168 0.523378 6.417067 0.7168 6.417067 1.103644V1024h68.266666V904.328533c0-0.489244 5.870933-0.625778 6.542222-1.103644l127.146667-83.273956a88.086756 88.086756 0 0 0 44.4416 12.174223c47.047111 0 85.9136-38.263467 85.9136-85.333334 0-47.035733-37.9904-85.333333-85.060267-85.333333-46.455467 0-88.416711 37.489778-89.258666 83.7632l-89.645511 57.002667V648.328533c-0.136533-0.489244 5.7344-0.568889 6.4512-1.092266z" p-id="39492" data-spm-anchor-id="a313x.7781069.0.i56" class="selected" fill="#5b9062"></path></svg>