<?xml version="1.0" standalone="no"?><!DOCTYPE svg PUBLIC "-//W3C//DTD SVG 1.1//EN" "http://www.w3.org/Graphics/SVG/1.1/DTD/svg11.dtd"><svg t="1537084742820" class="icon" style="" viewBox="0 0 1024 1024" version="1.1" xmlns="http://www.w3.org/2000/svg" p-id="29321" xmlns:xlink="http://www.w3.org/1999/xlink" width="200" height="200"><defs><style type="text/css"></style></defs><path d="M512.735908 0C230.275216 0 1.311836 228.96338 1.311836 511.392076c0 216.676915 134.735158 401.741782 324.983377 476.196475-4.47944-40.474941-8.47894-102.515186 1.75978-146.701662 9.342832-39.963005 59.992501-254.144232 59.992501-254.144232s-15.326084-30.71616-15.326084-75.990501c0-70.935133 41.242845-124.176478 92.500437-124.176478 43.674541 0 64.759905 32.795901 64.759905 72.022997 0 43.898513-27.868516 109.52231-42.330708 170.314711-12.15848 50.905637 25.5968 92.372453 75.734533 92.372453 90.772653 0 160.747907-95.764029 160.747906-234.082739 0-122.064742-88.020997-207.718035-213.637295-207.718036-145.485814 0-230.755156 109.298338-230.755156 221.796276 0 44.058493 16.7979 91.412573 37.915261 116.945382 4.223472 5.11936 4.767404 9.5988 3.615548 14.71816-3.83952 15.998-12.510436 51.161605-14.23822 58.136733-2.271716 9.5988-7.327084 11.550556-17.11786 7.03912-63.768029-29.43632-103.795026-122.768654-103.795026-198.215223 0-161.099863 117.233346-309.369329 337.877765-309.369329 177.385827 0 315.352581 126.576178 315.352581 295.355081 0 176.393951-111.218098 318.328209-265.91876 318.328209-51.801525 0-100.435446-26.844644-117.649294-58.840645l-31.964004 121.488814c-11.486564 44.570429-42.842645 100.339458-63.896013 134.223222 47.898013 14.71816 98.387702 22.813148 151.43707 22.813148 281.852768 0 511.296088-228.867392 511.296088-511.392076C1022.656168 229.955256 793.212848 1.11986 511.36008 1.11986L512.735908 0z" fill="#BD081C" p-id="29322"></path></svg>