<?xml version="1.0" standalone="no"?><!DOCTYPE svg PUBLIC "-//W3C//DTD SVG 1.1//EN" "http://www.w3.org/Graphics/SVG/1.1/DTD/svg11.dtd"><svg t="1537086531507" class="icon" style="" viewBox="0 0 1024 1024" version="1.1" xmlns="http://www.w3.org/2000/svg" p-id="51544" xmlns:xlink="http://www.w3.org/1999/xlink" width="200" height="200"><defs><style type="text/css"></style></defs><path d="M492.814032 100.997252L372.70142 351.489306c-8.181333 13.850449-11.966543 17.027815-31.828916 18.901489L85.463464 399.069975c-23.444968 2.362814-28.695552 17.59882-11.641132 33.933856l200.378704 184.375218c9.484002 8.840342 9.605775 12.628622 6.919596 24.768103l-51.366901 270.574439c-3.052522 16.295128 2.564405 25.745361 13.228279 25.827225 5.885034-0.346901 11.305487-2.113127 16.037255-5.132904l228.706889-132.191718c16.077164-10.06217 30.892591-10.387581 46.645366-0.610914l229.80592 132.802632c20.432355 11.81407 33.660634 2.484587 29.387307-20.694321l-39.318494-215.905328c23.52581-7.984858 46.359864-17.761526 59.995419-28.800953l-5.535063 1.100054c-81.405031 19.513426-193.214537 31.041994-296.883641 31.041993-38.260395 0-75.462692-1.344624-111.11775-3.870144a1289.258363 1289.258363 0 0 1-90.074482-9.124821c-10.622942-1.670036 0.936325-8.55484 0.936326-8.55484l275.596825-196.025559s7.245008-4.481058 0.121773-5.459338c-113.315812-17.720593-238.842737-22.201651-356.798218-22.201651l-8.140401 0.040932c79.695087-18.250666 180.068122-29.085432 289.150516-29.085432 64.309678 0 125.607766 3.78828 181.451631 10.591219-0.040932 0.081864 31.544437 4.399193 46.645367 6.843872 11.68104 1.791809 0.814552 8.55484 0.814552 8.55484L464.403982 643.329071s-6.430456 3.78828 0.488117 4.807492c84.904739 12.017708 189.592033 16.295128 283.655362 17.516956l-4.233418-23.219841c-2.116197-13.443174 0-18.086937 10.094916-27.741831L948.967096 432.596556c17.258059-16.09149 12.211113-31.204699-11.274787-33.567514l-263.670192-26.152636c-20.147876-1.873674-24.665773-5.01113-30.933523-21.428032L530.259876 100.997252c-5.087878-10.510378-11.803837-15.805988-18.519796-15.927761-7.122211 0.162706-13.83817 5.458315-18.926048 15.927761z" fill="#FFCE00" p-id="51545"></path></svg>