<?xml version="1.0" standalone="no"?><!DOCTYPE svg PUBLIC "-//W3C//DTD SVG 1.1//EN" "http://www.w3.org/Graphics/SVG/1.1/DTD/svg11.dtd"><svg t="1537085023466" class="icon" style="" viewBox="0 0 1024 1024" version="1.1" xmlns="http://www.w3.org/2000/svg" p-id="33843" xmlns:xlink="http://www.w3.org/1999/xlink" width="200" height="200"><defs><style type="text/css"></style></defs><path d="M597.333333 631.466667c4.266667 4.266667 4.266667 8.533333 0 12.8-17.066667 17.066667-46.933333 25.6-85.333333 25.6s-68.266667-8.533333-85.333333-25.6c-4.266667-4.266667-4.266667-8.533333 0-12.8 0 0 4.266667-4.266667 8.533333-4.266667s4.266667 0 8.533333 4.266667c12.8 12.8 38.4 21.333333 72.533334 21.333333 34.133333 0 59.733333-8.533333 72.533333-21.333333 0 0 4.266667-4.266667 8.533333-4.266667s0 0 0 4.266667z m-132.266666-81.066667c0 8.533333-4.266667 21.333333-12.8 25.6-8.533333 8.533333-17.066667 12.8-25.6 12.8s-21.333333-4.266667-25.6-12.8c-8.533333-8.533333-12.8-17.066667-12.8-25.6 0-12.8 4.266667-21.333333 12.8-25.6 8.533333-8.533333 17.066667-12.8 25.6-12.8s21.333333 4.266667 25.6 12.8c8.533333 8.533333 12.8 17.066667 12.8 25.6z m170.666666 0c0 8.533333-4.266667 21.333333-12.8 25.6-8.533333 8.533333-17.066667 12.8-25.6 12.8s-21.333333-4.266667-25.6-12.8c-8.533333-8.533333-12.8-17.066667-12.8-25.6 0-8.533333 4.266667-21.333333 12.8-25.6 8.533333-8.533333 17.066667-12.8 25.6-12.8s21.333333 4.266667 25.6 12.8c8.533333 8.533333 12.8 17.066667 12.8 25.6z m106.666667-51.2c0-12.8-4.266667-25.6-17.066667-34.133333s-21.333333-17.066667-38.4-17.066667c-12.8 0-25.6 4.266667-38.4 17.066667-38.4-25.6-81.066667-38.4-132.266666-42.666667l25.6-119.466667 85.333333 21.333334c0 8.533333 4.266667 21.333333 12.8 25.6 8.533333 8.533333 17.066667 12.8 25.6 12.8 8.533333 0 21.333333-4.266667 25.6-12.8s12.8-17.066667 12.8-25.6c0-8.533333-4.266667-21.333333-12.8-25.6-8.533333-8.533333-17.066667-12.8-25.6-12.8-17.066667 0-25.6 8.533333-34.133333 21.333333l-93.866667-21.333333c-4.266667 0-8.533333 0-12.8 8.533333l-29.866667 132.266667c-51.2 0-93.866667 17.066667-132.266666 42.666666-8.533333-8.533333-21.333333-17.066667-38.4-17.066666-12.8 0-25.6 4.266667-38.4 17.066666s-17.066667 21.333333-17.066667 34.133334c0 8.533333 4.266667 17.066667 8.533333 25.6 4.266667 8.533333 12.8 12.8 21.333334 17.066666 0 8.533333-4.266667 17.066667-4.266667 25.6 0 42.666667 21.333333 76.8 59.733333 102.4 38.4 29.866667 89.6 42.666667 145.066667 42.666667 55.466667 0 106.666667-12.8 145.066667-42.666667s59.733333-64 59.733333-102.4c0-8.533333 0-17.066667-4.266667-25.6 8.533333-4.266667 17.066667-8.533333 21.333334-17.066666 17.066667-8.533333 21.333333-17.066667 21.333333-29.866667z m153.6 12.8c0 51.2-8.533333 102.4-29.866667 149.333333-21.333333 46.933333-46.933333 89.6-81.066666 123.733334-34.133333 34.133333-76.8 59.733333-123.733334 81.066666-46.933333 21.333333-98.133333 29.866667-149.333333 29.866667s-102.4-8.533333-149.333333-29.866667c-46.933333-21.333333-89.6-46.933333-123.733334-81.066666-34.133333-34.133333-59.733333-76.8-81.066666-123.733334-21.333333-46.933333-29.866667-98.133333-29.866667-149.333333s8.533333-102.4 29.866667-149.333333c21.333333-46.933333 46.933333-89.6 81.066666-123.733334 34.133333-34.133333 76.8-59.733333 123.733334-81.066666 46.933333-21.333333 98.133333-29.866667 149.333333-29.866667s102.4 8.533333 149.333333 29.866667c46.933333 21.333333 89.6 46.933333 123.733334 81.066666 34.133333 34.133333 59.733333 76.8 81.066666 123.733334 21.333333 46.933333 29.866667 98.133333 29.866667 149.333333z" fill="#fc471e" p-id="33844"></path></svg>