<?xml version="1.0" standalone="no"?><!DOCTYPE svg PUBLIC "-//W3C//DTD SVG 1.1//EN" "http://www.w3.org/Graphics/SVG/1.1/DTD/svg11.dtd"><svg t="1537086749406" class="icon" style="" viewBox="0 0 1024 1024" version="1.1" xmlns="http://www.w3.org/2000/svg" p-id="62611" xmlns:xlink="http://www.w3.org/1999/xlink" width="200" height="200"><defs><style type="text/css"></style></defs><path d="M735.418182 223.418182c-88.436364 0-172.218182 41.890909-223.418182 102.4-51.2-60.509091-134.981818-102.4-223.418182-102.4C130.327273 223.418182 0 353.745455 0 512c0 158.254545 130.327273 288.581818 288.581818 288.581818 88.436364 0 167.563636-41.890909 218.763637-102.4 55.854545 60.509091 134.981818 102.4 223.418181 102.4 158.254545 0 288.581818-130.327273 288.581819-288.581818 4.654545-162.909091-125.672727-288.581818-283.927273-288.581818z m0 0" fill="#FFFFFF" p-id="62612"></path><path d="M242.036364 409.6V228.072727C107.054545 251.345455 0 367.709091 0 512c0 69.818182 27.927273 134.981818 69.818182 186.181818 102.4-46.545455 172.218182-158.254545 172.218182-288.581818z m46.545454 176.872727c-18.618182 74.472727-69.818182 139.636364-139.636363 181.527273 41.890909 23.272727 88.436364 37.236364 139.636363 37.236364s97.745455-13.963636 139.636364-37.236364c-65.163636-46.545455-121.018182-107.054545-139.636364-181.527273zM512 325.818182c-41.890909-51.2-102.4-88.436364-172.218182-97.745455v181.527273c0 130.327273 69.818182 242.036364 172.218182 293.236364-41.890909-51.2-69.818182-116.363636-69.818182-186.181819 0-74.472727 27.927273-139.636364 69.818182-190.836363z m0 0c41.890909 51.2 69.818182 116.363636 69.818182 186.181818s-27.927273 134.981818-69.818182 186.181818c102.4-46.545455 172.218182-158.254545 176.872727-288.581818V228.072727c-74.472727 9.309091-134.981818 46.545455-176.872727 97.745455z m0 0" fill="#005EAC" p-id="62613"></path><path d="M442.181818 512c0 69.818182 27.927273 134.981818 69.818182 186.181818 41.890909-51.2 69.818182-116.363636 69.818182-186.181818s-27.927273-134.981818-69.818182-186.181818c-41.890909 51.2-69.818182 116.363636-69.818182 186.181818z m0 0" fill="#E83928" p-id="62614"></path><path d="M781.963636 409.6c0 130.327273 69.818182 242.036364 172.218182 293.236364 41.890909-51.2 69.818182-116.363636 69.818182-186.181819C1024 372.363636 921.6 256 781.963636 232.727273v176.872727z m-46.545454 176.872727c-18.618182 74.472727-69.818182 139.636364-139.636364 181.527273 41.890909 23.272727 88.436364 37.236364 139.636364 37.236364s97.745455-13.963636 139.636363-37.236364c-69.818182-46.545455-121.018182-107.054545-139.636363-181.527273z m0 0" fill="#005EAC" p-id="62615"></path></svg>