<?xml version="1.0" standalone="no"?><!DOCTYPE svg PUBLIC "-//W3C//DTD SVG 1.1//EN" "http://www.w3.org/Graphics/SVG/1.1/DTD/svg11.dtd"><svg t="1537085712232" class="icon" style="" viewBox="0 0 1024 1024" version="1.1" xmlns="http://www.w3.org/2000/svg" p-id="43590" xmlns:xlink="http://www.w3.org/1999/xlink" width="200" height="200"><defs><style type="text/css"></style></defs><path d="M781.588 623.181c0-22.201-4.305-42.506-12.93-60.885-8.624-18.439-19.386-33.596-32.301-45.592-12.884-11.967-29.08-22.864-48.573-32.603-19.492-9.769-37.795-17.325-54.94-22.683a765.693 765.693 0 0 0-58.25-15.338l-69.27-15.94c-13.29-3.116-23.06-5.434-29.29-6.984-6.262-1.536-13.999-4.094-23.256-7.662-9.272-3.582-15.925-7.15-19.944-10.656s-7.691-8.174-10.988-13.969a40.505 40.505 0 0 1-5.027-19.944c0-34.183 31.955-51.282 95.836-51.282 19.1 0 36.17 2.665 51.297 8.008 15.097 5.328 27.093 11.665 35.944 18.996a538.108 538.108 0 0 1 25.317 22.307 128.845 128.845 0 0 0 26.582 19.341 65.4 65.4 0 0 0 31.94 7.993c20.862 0 37.6-7.09 50.259-21.283 12.689-14.194 19.01-31.309 19.01-51.298 0-24.414-12.417-46.48-37.313-66.168-24.866-19.718-56.37-34.68-94.466-44.885-38.097-10.235-78.511-15.353-121.139-15.353-30.149 0-59.44 3.447-87.828 10.326a306.338 306.338 0 0 0-79.564 31.278 160.409 160.409 0 0 0-59.215 57.92c-14.811 24.655-22.262 53.148-22.307 85.525 0 27.109 4.2 50.725 12.599 70.88a126.436 126.436 0 0 0 37.313 50.273 226.848 226.848 0 0 0 53.24 32.287c19.025 8.173 41.889 15.368 68.576 21.644l97.19 23.933c39.918 9.754 64.784 17.776 74.538 23.963 14.194 8.85 21.298 22.171 21.298 39.917 0 17.325-8.85 31.67-26.566 42.959-17.762 11.289-41.032 16.948-69.887 16.948-22.593 0-42.913-3.537-60.915-10.656-18.002-7.105-32.422-15.64-43.274-25.619-10.838-9.994-20.923-20.004-30.24-29.998s-19.507-18.53-30.585-25.649a65.461 65.461 0 0 0-35.96-10.642c-22.216 0-38.954 6.638-50.243 19.929-11.304 13.306-16.948 29.938-16.948 49.912 0 40.836 27.063 75.757 81.19 104.792 54.127 29.02 118.67 43.56 193.628 43.59 32.347 0 63.43-4.094 93.172-12.327 29.773-8.233 56.926-20.11 81.536-35.598 24.595-15.518 44.223-36.245 58.854-62.21 14.675-25.964 21.99-55.105 21.99-87.497h-0.09z m241.584 144.409c0 70.563-24.941 130.771-74.883 180.684-49.913 49.912-110.136 74.913-180.684 74.913-57.71 0-109.608-17.761-155.728-53.254-34.183 7.105-67.478 10.657-99.854 10.657-63.43 0-124.119-12.312-182.054-36.983-57.935-24.655-107.847-57.92-149.767-99.84s-75.2-91.846-99.84-149.751A460.229 460.229 0 0 1 43.38 511.962c0-32.376 3.552-65.656 10.657-99.854C18.544 365.958 0.797 314.014 0.797 256.38c0-70.533 24.957-130.771 74.9-180.684C125.608 25.784 185.831 0.813 256.38 0.813c57.694 0 109.593 17.746 155.728 53.239a489.053 489.053 0 0 1 99.84-10.672C575.39 43.38 636.05 55.722 694 80.362c57.95 24.67 107.847 57.935 149.752 99.855 41.92 41.905 75.184 91.832 99.84 149.767a459.898 459.898 0 0 1 36.967 182.054c0 32.346-3.522 65.626-10.642 99.84 35.523 46.179 53.254 98.063 53.254 155.712z" fill="#00AFF0" p-id="43591"></path></svg>