<?xml version="1.0" standalone="no"?><!DOCTYPE svg PUBLIC "-//W3C//DTD SVG 1.1//EN" "http://www.w3.org/Graphics/SVG/1.1/DTD/svg11.dtd"><svg t="1537085065278" class="icon" style="" viewBox="0 0 1024 1024" version="1.1" xmlns="http://www.w3.org/2000/svg" p-id="34565" xmlns:xlink="http://www.w3.org/1999/xlink" width="200" height="200"><defs><style type="text/css"></style></defs><path d="M512 0C229.12 0 0 229.248 0 512c0 282.88 229.12 512 512 512s512-229.12 512-512c0-282.752-229.12-512-512-512z m-26.368 380.032v211.168c0 79.104-72.192 138.72-147.2 138.72-70.144 0-135.68-33.12-143.104-112.384v-132.384h105.6v105.6c0 26.24 18.592 30.56 37.472 30.56 18.72 0 41.6-4.224 41.6-30.592v-211.2c2.144-78.624 67.424-128.608 140.384-128.608 74.4 0 123.68 56.288 123.68 128.672v44.8l-52.384 24.96-53.248-24.96v-70.688s-7.008-7.68-17.92-7.68c-18.08 0-34.816 7.68-34.848 34.048z m343.04 211.168c0 79.104-67.84 132.736-143.072 132.736-75.136 0-147.2-53.632-147.2-132.768v-105.6h105.632v105.6c0 26.368 22.816 30.592 41.6 30.592s37.504-4.224 37.504-30.592v-105.6h104.992v105.6l0.512 0.032z" fill="#EB4924" p-id="34566"></path></svg>