<?xml version="1.0" standalone="no"?><!DOCTYPE svg PUBLIC "-//W3C//DTD SVG 1.1//EN" "http://www.w3.org/Graphics/SVG/1.1/DTD/svg11.dtd"><svg t="1537086465066" class="icon" style="" viewBox="0 0 1024 1024" version="1.1" xmlns="http://www.w3.org/2000/svg" p-id="49112" xmlns:xlink="http://www.w3.org/1999/xlink" width="200" height="200"><defs><style type="text/css"></style></defs><path d="M512 0c-282.816 0-512 229.184-512 512s229.184 512 512 512 512-229.216 512-512-229.216-512-512-512zM763.616 351.008l-84 395.808c-5.792 28.192-22.784 34.784-46.4 21.792l-128-94.592-61.408 59.808c-7.2 7.008-12.8 12.8-25.6 12.8-16.608 0-13.792-6.208-19.392-22.016l-43.616-143.2-126.592-39.392c-27.392-8.384-27.584-27.2 6.208-40.608l493.184-190.4c22.4-10.208 44.192 5.408 35.616 40z" fill="#2fa5dd" p-id="49113"></path></svg>