<?xml version="1.0" standalone="no"?><!DOCTYPE svg PUBLIC "-//W3C//DTD SVG 1.1//EN" "http://www.w3.org/Graphics/SVG/1.1/DTD/svg11.dtd"><svg t="1537084865716" class="icon" style="" viewBox="0 0 1024 1024" version="1.1" xmlns="http://www.w3.org/2000/svg" p-id="32615" xmlns:xlink="http://www.w3.org/1999/xlink" width="200" height="200"><defs><style type="text/css"></style></defs><path d="M512 967.111111c251.733333 0 455.111111-203.377778 455.111111-455.111111S763.733333 56.888889 512 56.888889 56.888889 260.266667 56.888889 512s203.377778 455.111111 455.111111 455.111111z m128-297.244444l25.6 75.377777c-4.266667 7.111111-17.066667 14.222222-35.555556 21.333334s-36.977778 9.955556-56.888888 9.955555c-22.755556 0-42.666667-2.844444-61.155556-8.533333-18.488889-5.688889-34.133333-14.222222-45.511111-24.177778-11.377778-9.955556-21.333333-21.333333-29.866667-34.133333-8.533333-12.8-14.222222-25.6-17.066666-38.4-2.844444-12.8-5.688889-25.6-5.688889-36.977778V462.222222h-54.044445v-68.266666c15.644444-5.688889 28.444444-12.8 41.244445-22.755556 12.8-9.955556 21.333333-18.488889 28.444444-28.444444s12.8-21.333333 18.488889-32.711112c5.688889-11.377778 8.533333-22.755556 11.377778-31.288888 2.844444-8.533333 4.266667-18.488889 4.266666-28.444445 0-1.422222 0-1.422222 1.422223-2.844444s1.422222-1.422222 2.844444-1.422223h78.222222v135.111112h106.666667v79.644444h-106.666667V625.777778c0 5.688889 0 12.8 1.422223 18.488889s4.266667 11.377778 7.111111 17.066666c2.844444 5.688889 8.533333 9.955556 15.644444 12.8 7.111111 2.844444 15.644444 4.266667 25.6 4.266667 17.066667 0 31.288889-2.844444 44.088889-8.533333z" fill="#040000" p-id="32616"></path></svg>