<?xml version="1.0" standalone="no"?><!DOCTYPE svg PUBLIC "-//W3C//DTD SVG 1.1//EN" "http://www.w3.org/Graphics/SVG/1.1/DTD/svg11.dtd"><svg t="1537085764307" class="icon" style="" viewBox="0 0 1024 1024" version="1.1" xmlns="http://www.w3.org/2000/svg" p-id="44039" xmlns:xlink="http://www.w3.org/1999/xlink" width="200" height="200"><defs><style type="text/css"></style></defs><path d="M828.928 89.6H195.072c-58.368 0-105.472 47.104-105.472 105.472v633.856c0 58.368 47.104 105.472 105.472 105.472h633.856c58.368 0 105.472-47.104 105.472-105.472V195.072c0-58.368-47.104-105.472-105.472-105.472zM505.856 200.704c1.536-26.112 25.6-16.384 37.376-17.92 154.624 5.12 288.256 146.944 286.208 300.032 0 14.848 5.12 37.376-17.408 36.864-21.504-0.512-15.872-23.04-17.92-37.888-20.48-162.304-94.72-239.104-256-263.68-12.8-2.56-33.28 0-32.256-17.408z m230.912 287.232c-24.576 3.584-19.968-18.944-22.016-33.28-16.384-98.816-51.2-135.168-150.528-157.184-14.848-3.072-37.376-1.024-33.792-23.552 3.584-21.504 24.064-14.336 39.424-12.288 99.328 11.776 180.736 98.304 179.712 193.024-1.024 11.776 5.632 30.72-12.8 33.28z m-78.336-23.552c-10.752 1.024-17.92-7.68-18.944-18.944-4.096-40.96-25.6-65.024-66.56-71.168-12.288-2.048-24.064-6.144-18.432-22.528 3.584-11.264 13.824-12.288 24.064-12.288 44.032-1.024 95.744 51.712 95.232 97.792 1.024 12.288-0.512 25.6-15.36 27.136z m173.056 281.6c-16.896 48.128-75.776 96.256-125.952 95.744-7.168-2.048-20.992-4.096-33.792-9.728C451.072 737.28 290.816 582.144 199.68 358.4c-30.72-74.752 1.536-138.24 78.336-163.84 13.824-4.608 27.136-5.12 40.96 0 32.768 12.288 115.712 126.464 117.76 160.768 1.536 26.112-16.384 40.448-34.304 52.224-33.28 22.528-33.792 51.712-19.456 83.456 32.256 72.704 87.552 122.368 158.72 154.624 26.112 11.776 50.688 10.752 68.608-16.384 31.744-47.616 70.144-45.568 112.128-15.872 20.992 14.848 42.496 29.184 62.976 45.568 27.648 22.528 62.464 40.96 46.08 87.04z" p-id="44040" fill="#675fab"></path></svg>