<?xml version="1.0" standalone="no"?><!DOCTYPE svg PUBLIC "-//W3C//DTD SVG 1.1//EN" "http://www.w3.org/Graphics/SVG/1.1/DTD/svg11.dtd"><svg t="1537087535010" class="icon" style="" viewBox="0 0 1262 1024" version="1.1" xmlns="http://www.w3.org/2000/svg" p-id="63299" xmlns:xlink="http://www.w3.org/1999/xlink" width="246.484375" height="200"><defs><style type="text/css"></style></defs><path d="M110.933333 703.146667a402.773333 286.72 0 1 0 805.546667 0 402.773333 286.72 0 1 0-805.546667 0Z" fill="#FFFFFF" p-id="63300"></path><path d="M453.973333 551.253333c39.253333-5.12 73.386667-1.706667 104.106667 8.533334 30.72 10.24 52.906667 27.306667 68.266667 46.08 15.36 20.48 25.6 42.666667 32.426666 66.56s6.826667 49.493333 3.413334 73.386666c-5.12 23.893333-13.653333 44.373333-27.306667 61.44-34.133333 42.666667-76.8 71.68-131.413333 83.626667-54.613333 11.946667-112.64 3.413333-175.786667-27.306667-10.24-5.12-18.773333-13.653333-27.306667-22.186666-6.826667-8.533333-13.653333-17.066667-17.066666-23.893334s-5.12-15.36-8.533334-23.893333c-1.706667-8.533333-3.413333-13.653333-3.413333-17.066667v-5.12l-1.706667-11.946666c0-6.826667 0-15.36 1.706667-27.306667s3.413333-25.6 6.826667-39.253333c3.413333-13.653333 8.533333-29.013333 17.066666-44.373334s18.773333-29.013333 30.72-42.666666 29.013333-23.893333 51.2-34.133334c25.6-11.946667 49.493333-18.773333 76.8-20.48z m-51.2 271.36c11.946667-1.706667 23.893333-5.12 34.133334-11.946666 10.24-6.826667 18.773333-15.36 25.6-23.893334 6.826667-10.24 8.533333-20.48 8.533333-30.72 0-6.826667-1.706667-13.653333-3.413333-18.773333-1.706667-5.12-5.12-10.24-8.533334-15.36-5.12-5.12-8.533333-8.533333-15.36-11.946667-5.12-3.413333-11.946667-5.12-20.48-6.826666s-17.066667-1.706667-25.6 0c-11.946667 1.706667-23.893333 5.12-34.133333 11.946666-10.24 6.826667-17.066667 15.36-23.893333 25.6-5.12 10.24-8.533333 20.48-8.533334 30.72 0 5.12 0 8.533333 1.706667 13.653334s3.413333 8.533333 5.12 11.946666c1.706667 3.413333 5.12 6.826667 8.533333 10.24s6.826667 6.826667 10.24 8.533334 8.533333 3.413333 13.653334 5.12c5.12 1.706667 8.533333 1.706667 13.653333 3.413333 8.533333 0 13.653333 0 18.773333-1.706667z m121.173334-102.4c3.413333-3.413333 6.826667-8.533333 8.533333-11.946666 1.706667-5.12 3.413333-8.533333 5.12-13.653334 0-5.12 0-8.533333-3.413333-13.653333-3.413333-6.826667-8.533333-10.24-15.36-11.946667s-15.36 1.706667-22.186667 6.826667l-5.12 5.12c-1.706667 1.706667-3.413333 1.706667-5.12 5.12l-3.413333 5.12c-1.706667 1.706667-1.706667 5.12-1.706667 6.826667v5.12c0 1.706667 0 3.413333 1.706667 5.12l3.413333 5.12c3.413333 5.12 8.533333 8.533333 15.36 8.533333 8.533333 5.12 15.36 1.706667 22.186667-1.706667z" fill="" p-id="63301"></path><path d="M1032.533333 418.133333c5.12 0 10.24-1.706667 15.36-5.12 5.12-3.413333 8.533333-6.826667 11.946667-10.24 3.413333-5.12 5.12-8.533333 5.12-13.653333 1.706667-1.706667 1.706667-1.706667 1.706667-5.12 11.946667-109.226667-27.306667-172.373333-114.346667-187.733333-25.6-5.12-49.493333-5.12-71.68-1.706667-6.826667 0-11.946667 1.706667-17.066667 5.12-5.12 3.413333-8.533333 6.826667-11.946666 13.653333-3.413333 5.12-5.12 10.24-5.12 17.066667 0 10.24 3.413333 17.066667 10.24 23.893333s15.36 10.24 23.893333 10.24c75.093333-17.066667 114.346667 6.826667 119.466667 71.68 1.706667 17.066667 1.706667 32.426667-3.413334 46.08 0 10.24 3.413333 17.066667 10.24 23.893334 8.533333 8.533333 15.36 11.946667 25.6 11.946666z" fill="#FF9A1F" p-id="63302"></path><path d="M1008.64 11.946667c-42.666667-10.24-98.986667-8.533333-168.96 5.12-1.706667 0-1.706667 0-3.413333 1.706666l-1.706667 3.413334-1.706667 1.706666c-10.24 3.413333-18.773333 8.533333-25.6 18.773334-6.826667 8.533333-10.24 18.773333-10.24 29.013333 0 13.653333 5.12 25.6 13.653334 35.84 10.24 10.24 20.48 13.653333 34.133333 13.653333h5.12c1.706667 0 3.413333 0 6.826667-1.706666s6.826667-1.706667 10.24-1.706667 8.533333-1.706667 11.946666-3.413333c5.12-1.706667 8.533333-3.413333 11.946667-5.12 3.413333-1.706667 10.24-1.706667 18.773333-1.706667 10.24 0 20.48 0 35.84 1.706667 13.653333 1.706667 29.013333 5.12 46.08 10.24 17.066667 5.12 34.133333 13.653333 49.493334 22.186666 17.066667 8.533333 34.133333 20.48 49.493333 35.84 17.066667 15.36 30.72 32.426667 44.373333 52.906667 25.6 56.32 29.013333 110.933333 13.653334 163.84v3.413333c0 1.706667-1.706667 3.413333-1.706667 6.826667-1.706667 3.413333-1.706667 6.826667-3.413333 10.24s-1.706667 8.533333-3.413334 13.653333-1.706667 10.24-1.706666 13.653334c0 8.533333 1.706667 15.36 6.826666 22.186666 5.12 5.12 10.24 10.24 17.066667 11.946667s15.36 3.413333 25.6 3.413333c27.306667 0 42.666667-17.066667 47.786667-49.493333 11.946667-37.546667 17.066667-73.386667 18.773333-107.52s-1.706667-64.853333-6.826667-90.453333c-6.826667-25.6-15.36-49.493333-27.306666-73.386667-11.946667-22.186667-27.306667-42.666667-42.666667-58.026667-17.066667-15.36-34.133333-30.72-54.613333-42.666666-20.48-13.653333-39.253333-23.893333-58.026667-30.72-17.066667-5.12-37.546667-11.946667-56.32-15.36z" fill="#FF9A1F" p-id="63303"></path><path d="M931.84 501.76c-13.653333-3.413333-23.893333-6.826667-27.306667-13.653333-5.12-5.12-5.12-10.24-1.706666-15.36l5.12-6.826667c1.706667-1.706667 1.706667-1.706667 3.413333-5.12 1.706667-1.706667 3.413333-6.826667 5.12-11.946667 3.413333-6.826667 5.12-11.946667 6.826667-18.773333s3.413333-13.653333 3.413333-23.893333c1.706667-8.533333 0-17.066667 0-25.6-1.706667-8.533333-5.12-17.066667-8.533333-27.306667-5.12-10.24-10.24-18.773333-17.066667-25.6-13.653333-13.653333-30.72-22.186667-52.906667-25.6-22.186667-3.413333-42.666667-3.413333-64.853333 0s-40.96 6.826667-61.44 13.653333c-18.773333 5.12-34.133333 10.24-47.786667 15.36l-18.773333 8.533334c-10.24 3.413333-17.066667 5.12-23.893333 5.12-6.826667 1.706667-10.24 0-13.653334 0-3.413333-1.706667-6.826667-3.413333-8.533333-5.12-1.706667-1.706667-3.413333-5.12-1.706667-10.24 0-5.12 1.706667-10.24 1.706667-13.653334 0-3.413333 1.706667-10.24 3.413333-18.773333s3.413333-15.36 5.12-18.773333c0-11.946667 0-22.186667-1.706666-32.426667s-5.12-22.186667-8.533334-34.133333c-5.12-11.946667-11.946667-22.186667-20.48-30.72s-20.48-13.653333-34.133333-18.773334c-13.653333-5.12-32.426667-6.826667-52.906667-5.12-22.186667 1.706667-46.08 6.826667-75.093333 17.066667-34.133333 11.946667-66.56 29.013333-102.4 51.2-34.133333 22.186667-64.853333 46.08-88.746667 69.973333-25.6 23.893333-47.786667 47.786667-69.973333 71.68-20.48 23.893333-37.546667 42.666667-49.493333 56.32l-15.36 23.893334c-30.72 40.96-54.613333 81.92-69.973334 124.586666-15.36 40.96-22.186667 73.386667-22.186666 93.866667v30.72c5.12 46.08 20.48 87.04 42.666666 124.586667 22.186667 35.84 49.493333 66.56 80.213334 88.746666 30.72 22.186667 68.266667 42.666667 109.226666 58.026667 42.666667 15.36 81.92 27.306667 121.173334 34.133333 39.253333 6.826667 80.213333 11.946667 122.88 15.36 69.973333 5.12 143.36 0 220.16-17.066666 75.093333-17.066667 146.773333-46.08 211.626666-87.04s110.933333-90.453333 138.24-148.48c15.36-34.133333 23.893333-64.853333 25.6-95.573334 0-29.013333-5.12-54.613333-15.36-73.386666-10.24-18.773333-23.893333-35.84-40.96-49.493334s-32.426667-25.6-47.786666-32.426666c-17.066667-6.826667-30.72-10.24-42.666667-11.946667z m-435.2 448.853333c-102.4 5.12-191.146667-15.36-262.826667-61.44-71.68-44.373333-107.52-102.4-107.52-172.373333 0-68.266667 35.84-128 107.52-177.493333 71.68-49.493333 158.72-76.8 262.826667-81.92s191.146667 11.946667 262.826667 51.2c71.68 39.253333 107.52 93.866667 107.52 162.133333 0 69.973333-35.84 131.413333-109.226667 186.026667-73.386667 58.026667-160.426667 88.746667-261.12 93.866666z" fill="#E90F24" p-id="63304"></path></svg>