<?xml version="1.0" standalone="no"?><!DOCTYPE svg PUBLIC "-//W3C//DTD SVG 1.1//EN" "http://www.w3.org/Graphics/SVG/1.1/DTD/svg11.dtd"><svg t="1537086002655" class="icon" style="" viewBox="0 0 1024 1024" version="1.1" xmlns="http://www.w3.org/2000/svg" p-id="46643" xmlns:xlink="http://www.w3.org/1999/xlink" width="200" height="200"><defs><style type="text/css"></style></defs><path d="M549.888 1024h-73.728C214.016 1024 0 809.984 0 548.864v-73.728C0 214.016 214.016 0 475.136 0h73.728C811.008 0 1024 214.016 1024 475.136v73.728c0 261.12-212.992 475.136-474.112 475.136z" fill="#4DC247" p-id="46644"></path><path d="M586.752 546.816c-9.216 0-28.672 35.84-39.936 35.84-3.072 0-6.144-1.024-8.192-3.072-20.48-10.24-38.912-21.504-56.32-37.888-14.336-13.312-29.696-33.792-37.888-51.2-1.024-2.048-2.048-4.096-2.048-5.12 0-8.192 25.6-24.576 25.6-38.912 0-4.096-19.456-54.272-21.504-60.416-4.096-9.216-5.12-12.288-15.36-12.288-5.12 0-9.216-1.024-13.312-1.024-8.192 0-13.312 3.072-19.456 8.192-17.408 16.384-26.624 34.816-27.648 59.392v3.072c0 25.6 12.288 51.2 26.624 72.704 31.744 47.104 65.536 89.088 118.784 112.64 16.384 7.168 53.248 23.552 70.656 23.552 21.504 0 56.32-13.312 64.512-34.816 3.072-8.192 6.144-19.456 6.144-28.672 0-1.024 0-4.096-1.024-5.12-2.048-5.12-62.464-36.864-69.632-36.864z m-75.776 197.632c-45.056 0-91.136-13.312-129.024-38.912l-90.112 28.672 29.696-87.04c-28.672-39.936-45.056-88.064-45.056-137.216C277.504 380.928 381.952 276.48 510.976 276.48s234.496 105.472 234.496 234.496c0 128-105.472 233.472-234.496 233.472z m0-515.072c-155.648 0-281.6 125.952-281.6 281.6 0 51.2 13.312 101.376 39.936 145.408l-51.2 151.552L373.76 757.76c136.192 74.752 307.2 25.6 381.952-110.592 22.528-41.984 34.816-88.064 34.816-136.192 2.048-155.648-123.904-281.6-279.552-281.6z" fill="#FFFFFF" p-id="46645"></path></svg>