<?xml version="1.0" standalone="no"?><!DOCTYPE svg PUBLIC "-//W3C//DTD SVG 1.1//EN" "http://www.w3.org/Graphics/SVG/1.1/DTD/svg11.dtd"><svg t="1537085315680" class="icon" style="" viewBox="0 0 1024 1024" version="1.1" xmlns="http://www.w3.org/2000/svg" p-id="39027" xmlns:xlink="http://www.w3.org/1999/xlink" width="200" height="200"><defs><style type="text/css"></style></defs><path d="M513.2 69.6C332.2 69.6 161.2 45.8 0 0v1024c161.4-45.8 332.4-69.6 513.2-69.6 178.8 0 349.4 23.2 510.8 69.6V0c-161.4 46.4-331.8 69.6-510.8 69.6z m283.6 87.4l-6.2 9.8c-5.8 9.2-11 17-18.2 28-9.6 14.4-27.6 43-49.2 79.8-6 10.2-13.4 22.4-21 35.6-14.6 24.6-31 52.4-44 74.4-5.4 9.4-10.8 19-16.4 28.6-14.4 25-29.2 50.8-43.4 75.6-14.6 25.8-29 51.2-43.4 76.4v25.4c0 35.2 0.8 73.6 2 107.8 0.6 15.6 1.2 43.4 2 72.8 0.8 35 1.6 71.2 2.6 89.6l0.2 5.6v0.6l-6-1.6c-2.4-0.6-4.6-1.2-7-1.8-7.2-1.6-15-2.8-22.6-3.6-4.6-0.4-9.4-0.6-14.2-0.6-4.8 0-9.6 0.2-14.2 0.6-7.6 0.8-15.4 2-22.6 3.6-2.4 0.6-4.8 1.2-7 1.8l-6 1.6v-0.6l0.2-5.6c0.8-18.2 1.8-54.6 2.6-89.6 0.6-29.4 1.4-57.2 2-72.8 1.4-34.4 2-72.6 2-107.8v-25.4c-14.4-25.4-28.8-50.6-43.4-76.4-14.2-25-29-50.6-43.2-75.6-5.6-9.6-11-19.2-16.4-28.6-12.8-22.2-29.4-50-44-74.4-7.8-13-15.2-25.4-21-35.6-21.6-36.8-39.6-65.2-49.2-79.8-7.2-11-12.4-18.8-18.2-28l-6.2-9.8 11.2 3.2c14.2 4 28.8 6 44.4 6s30.6-2 44.6-6l3.4-1 1.8 3c27.6 49.8 101.8 171.8 146.2 244.8 15.2 25.2 27.4 45 33.4 55.2v-0.2 0.2c6-10 18.2-30 33.4-55.2 44.4-72.8 118.6-194.8 146.2-244.8l1.8-3 3.4 1c14 4 29 6 44.6 6s30.2-2 44.4-6l10.6-3.2z" fill="#601dcf" p-id="39028"></path></svg>